<?xml version="1.0" encoding="UTF-8" standalone="no"?>
<svg
   xmlns:dc="http://purl.org/dc/elements/1.1/"
   xmlns:cc="http://creativecommons.org/ns#"
   xmlns:rdf="http://www.w3.org/1999/02/22-rdf-syntax-ns#"
   xmlns:svg="http://www.w3.org/2000/svg"
   xmlns="http://www.w3.org/2000/svg"
   xmlns:sodipodi="http://sodipodi.sourceforge.net/DTD/sodipodi-0.dtd"
   xmlns:inkscape="http://www.inkscape.org/namespaces/inkscape"
   xml:space="preserve"
   viewBox="0 0 343 290.00001"
   version="1.1"
   id="svg46"
   sodipodi:docname="A-Logo_Teal_2023.svg"
   width="343"
   height="290"
   inkscape:version="0.92.5 (2060ec1f9f, 2020-04-08)"><metadata
     id="metadata52"><rdf:RDF><cc:Work
         rdf:about=""><dc:format>image/svg+xml</dc:format><dc:type
           rdf:resource="http://purl.org/dc/dcmitype/StillImage" /><dc:title></dc:title></cc:Work></rdf:RDF></metadata><defs
     id="defs50" /><sodipodi:namedview
     pagecolor="#ffffff"
     bordercolor="#666666"
     borderopacity="1"
     objecttolerance="10"
     gridtolerance="10"
     guidetolerance="10"
     inkscape:pageopacity="0"
     inkscape:pageshadow="2"
     inkscape:window-width="1920"
     inkscape:window-height="1009"
     id="namedview48"
     showgrid="false"
     fit-margin-top="0"
     fit-margin-left="0"
     fit-margin-right="0"
     fit-margin-bottom="0"
     inkscape:zoom="0.82348157"
     inkscape:cx="622.62631"
     inkscape:cy="-71.274606"
     inkscape:window-x="1912"
     inkscape:window-y="70"
     inkscape:window-maximized="1"
     inkscape:current-layer="svg46" /><path
     d="m 15.723312,282.82663 z m 93.938368,-60.67807 -92.184509,57.91787 -0.0011,0.002 z"
     style="fill:#3ec1cd;stroke-width:1.13593912"
     id="path32"
     inkscape:connector-curvature="0" /><path
     d="m 126.68162,275.7497 -14.67463,-30.10817 0.39808,-0.6546 82.52806,-135.39089 27.36111,0.008 31.16455,139.04735 -20.16369,27.20274 h 91.43838 L 266.27834,14.123237 h -64.6619 l 15.52086,23.773188 -41.44203,18.595387 17.85024,30.833105 -54.45494,25.986573 18.22217,33.69202 -56.35097,35.4187 17.35661,42.47749 -82.639519,51.11207 0.424247,-0.26207 z m 74.02036,-263.02869 0.90878,1.394285 -0.89854,-1.394285 z"
     style="fill:#a71930;stroke-width:1.13593912"
     id="path34"
     inkscape:connector-curvature="0" /><path
     d="M 333.92133,282.92987 272.37476,6.890878 l -75.51717,-0.04084 3.84439,5.870974 0.90878,1.394285 0.006,0.0079 h 64.6619 L 324.7338,275.85407 h -91.4387 l 20.16369,-27.20274 -31.16455,-139.04734 -27.36111,-0.008 -82.52806,135.39088 -0.39808,0.6546 14.67463,30.10817 H 36.103108 l -0.424247,0.26207 -4.011583,2.47999 -0.09895,0.0613 -7.070031,4.36891 H 139.18839 l -18.15165,-37.32359 77.87498,-129.53807 h 16.95966 l 29.40614,130.83933 -26.41707,36.05856 z"
     id="path36"
     inkscape:connector-curvature="0"
     style="stroke-width:1.13593912" /><path
     d="M 165.62821,53.13146 207.45127,34.587125 189.86604,8.808162 188.52961,6.850036 12.933288,282.92193 l 4.543883,-2.8555 92.184509,-57.91787 -17.68531,-41.96129 56.21107,-35.14302 -19.43463,-34.7573 54.47655,-26.225954 z"
     id="path38"
     inkscape:connector-curvature="0"
     style="stroke-width:1.13593912" /><path
     d="m 214.58044,173.7967 h -35.15111 c 0,0 2.64444,10.39418 3.24612,12.70966 -1.60941,2.77156 -21.47624,37.04556 -21.47624,37.04556 0,0 28.31652,-23.34775 32.33492,-26.65024 2.77638,3.349 22.78197,27.54876 22.78197,27.54876 0,0 -9.89645,-32.9909 -10.84276,-36.1323 1.46496,-2.34498 9.1071,-14.52144 9.1071,-14.52144 z"
     style="fill:#a71930;stroke-width:1.13593912"
     id="path40"
     inkscape:connector-curvature="0" /><path
     d="M 236.39676,245.29778 203.81502,290 H 343 L 278.24825,1.09705 278.00144,0 183.70934,0.06694 0,289.99319 h 151.14807 l -21.21123,-44.47078 42.22,-70.68312 2.85031,11.18719 -35.35925,60.8732 53.03205,-39.26008 35.5583,39.26008 -14.76335,-56.89909 8.10164,-12.92522 z m -42.86263,-48.39724 c -4.0184,3.30249 -32.33492,26.65025 -32.33492,26.65025 0,0 19.86683,-34.27401 21.47624,-37.04556 -0.60168,-2.31549 -3.24612,-12.70966 -3.24612,-12.70966 h 35.15111 c 0,0 -7.64214,12.17645 -9.10824,14.52144 0.94745,3.14139 10.84276,36.13229 10.84276,36.13229 0,0 -20.00445,-24.19975 -22.78083,-27.54876 z m -16.79132,-29.73832 26.58655,-44.51049 h 6.42513 l 9.66897,44.51049 z M 12.933288,282.92193 188.52961,6.850036 l 1.33643,1.959261 17.58636,25.778962 -41.82305,18.544335 17.60115,30.928402 -54.47769,26.225954 19.43463,34.7573 -56.21107,35.14302 17.68645,41.96129 -92.185649,57.92014 0.0011,-0.002 z m 126.255102,0 H 24.498294 l 93.820086,-58.02223 -17.35661,-42.47749 56.35097,-35.4187 -18.22217,-33.69202 54.45494,-25.986573 -17.8491,-30.833105 41.44203,-18.595387 -15.52086,-23.773188 -0.006,-0.0091 -0.90991,-1.393151 -3.84439,-5.872108 75.51717,0.04084 61.54657,276.038992 -115.06088,0.0284 26.41594,-36.05855 -29.40615,-130.83821 H 198.91028 L 121.0353,245.59842 Z"
     style="fill:#3ec1cd;stroke-width:1.13593912"
     id="path42"
     inkscape:connector-curvature="0" /></svg>