<svg xmlns="http://www.w3.org/2000/svg" xml:space="preserve" style="enable-background:new 0 0 512 512" viewBox="0 0 512 512"><title>Atlanta Braves Insignia</title><path d="M 0,512 V 0 h 512 v 512 z" fill="#13274f" /><path d="m 467.89531,362.30946 c -6.51252,-6.3012 -13.40601,-13.15779 -11.55545,5.16088 3.18992,31.45679 -12.681,53.79602 -33.38351,57.16287 -19.95049,3.22926 -57.25627,-35.16033 -70.05281,-103.75825 102.69659,-31.00457 84.86451,-103.36014 76.48425,-112.67921 -7.16379,-7.91336 -10.73464,-7.7831 -12.20426,5.1363 -3.76007,32.80108 -26.50236,55.06659 -68.47996,70.3723 -2.48706,-59.57132 13.21431,-135.2888 65.89953,-221.917853 15.76525,-25.890415 -5.21495,-10.695307 -10.92387,-7.704457 -114.00138,59.33292 -169.64058,176.30549 -212.51521,262.13583 -56.9073,19.29676 -71.82961,55.38116 -73.24517,61.52507 -1.91691,8.31394 -1.16489,9.95312 8.98731,5.13628 14.29563,-6.83201 26.9103,-12.3861 38.36254,-17.28893 -18.50545,32.13999 -36.42108,53.45198 -58.2688,54.5382 -43.621723,2.14545 -61.001606,-35.82142 -61.001606,-42.38799 0,-12.2313 -5.812134,-12.84326 -12.204253,8.975 -8.709598,29.59887 13.934379,79.18755 75.786299,78.3397 46.86079,-0.63899 79.61027,-55.75716 110.28309,-119.32446 35.71329,-9.92858 58.78487,-9.47881 100.88293,-17.26194 19.3238,96.15703 71.46585,152.73258 126.60374,128.90652 38.24703,-16.54433 39.80757,-76.45966 20.54521,-95.07079 z M 315.49206,293.6329 c -21.88211,5.18541 -46.7551,9.08312 -75.57001,12.1772 -0.46694,0.0263 -0.9437,0.10566 -1.39344,0.15969 24.10377,-51.78574 48.47297,-102.77523 79.12118,-129.88706 -5.74576,42.12261 -6.02592,81.83681 -2.16263,117.55012 z" fill="#f9f9f9" /></svg>