<svg xmlns="http://www.w3.org/2000/svg" xml:space="preserve" style="enable-background:new 0 0 512 512" viewBox="0 0 512 512"><title>Boston Red Sox cap logo</title><path d="M 512,512 H 0 V 0 h 512 z" fill="#0d2b56" /><g><path d="m 386.27975,308.47329 c -4.21344,-12.33823 -5.65381,-36.06684 -29.33688,-52.46951 23.68307,-16.41094 25.12344,-40.13128 29.33688,-52.46949 6.83343,-20.02425 11.37386,-32.30453 25.93467,-40.95494 -51.87347,-30.03223 -26.83283,-57.3369 -69.83239,-100.328204 -37.14711,-37.13882 -95.51874,-40.081614 -136.01839,-8.828385 -11.56338,-13.03621 -28.16075,-20.489502 -45.58642,-20.47126 -33.6828,0 -60.991592,27.312947 -60.991592,60.991602 0,7.288697 1.278932,14.279387 3.613302,20.760987 5.81936,-12.04849 17.37945,-20.27259 30.69446,-20.27259 19.13851,0 34.6596,16.98213 34.6596,37.94178 v 69.36056 c 0,7.28042 -2.43786,39.59322 -43.99708,54.26994 41.55922,14.66845 43.99708,46.98952 43.99708,54.27822 v 69.36058 c 0,20.9431 -15.52109,37.9335 -34.6596,37.9335 -13.31501,0 -24.8751,-8.21582 -30.69446,-20.26433 -2.39962,6.65259 -3.622315,13.67227 -3.613302,20.74443 0,33.69107 27.312922,60.99161 60.991592,60.99161 18.12447,0 34.41125,-7.90954 45.58642,-20.46298 40.49551,31.24495 98.87128,28.29803 136.01839,-8.82839 42.99956,-42.99129 17.95892,-70.30424 69.83239,-100.33648 -14.56081,-8.64213 -19.10124,-20.93069 -25.93467,-40.94665 z" fill="#ffffff" /><path d="m 370.72556,303.70171 c -2.40473,-9.5113 -11.92431,-34.54368 -32.45351,-47.70142 20.5292,-13.15772 30.04878,-38.19839 32.45351,-47.70142 0.8278,-3.25735 1.61006,-6.32432 2.58686,-9.19675 4.49489,-13.17429 8.59246,-25.14828 16.56823,-35.07348 -19.80076,-15.67008 -25.22277,-31.54296 -30.47923,-46.9647 -4.89227,-14.37044 -9.52788,-27.942062 -26.71696,-45.122854 -34.92447,-34.92448 -92.86568,-33.769713 -127.79015,1.158908 -7.49565,-16.278502 -25.05722,-26.452047 -44.11296,-26.452047 -23.09948,0 -42.38701,16.667563 -46.48455,38.587455 a 45.578144,45.578144 0 0 1 19.80073,-4.51146 c 26.66727,0 48.37193,23.157438 48.37193,51.641708 v 69.36056 c 0,12.05677 -4.61079,36.5097 -28.3725,54.26995 23.76171,17.76852 28.3725,42.2049 28.3725,54.27821 v 69.36058 c 0,28.47185 -21.70879,51.6417 -48.37193,51.6417 -7.04863,0 -13.76615,-1.61834 -19.80073,-4.52802 4.09754,21.94059 23.38093,38.59573 46.48455,38.59573 19.05574,0 36.61731,-10.16525 44.11296,-26.44376 34.92447,34.93275 92.86568,36.07926 127.79015,1.15476 17.18908,-17.18907 21.82469,-30.74413 26.71696,-45.12285 5.25646,-15.43001 10.67847,-31.28221 30.47923,-46.96468 -7.97577,-9.92523 -12.07334,-21.89922 -16.56823,-35.08178 -0.98093,-2.86 -1.75906,-5.93526 -2.58686,-9.18434 z m -46.43488,70.46983 c 0,26.93215 -24.74267,48.75684 -55.27158,48.75684 -21.14178,0 -39.51871,-10.47155 -48.80238,-25.84362 v -97.62131 c 9.28781,-15.3721 27.6606,-25.84363 48.80238,-25.84363 30.52891,0 55.27158,21.83297 55.27158,48.75685 0,9.52788 -3.08353,18.38937 -8.43934,25.90157 5.35581,7.50392 8.43934,16.37369 8.43934,25.8933 z m 0,-184.54762 c 0,26.92388 -24.74267,48.74858 -55.27158,48.74858 -21.14178,0 -39.51871,-10.46328 -48.80238,-25.83534 v -97.62961 c 9.28781,-15.37207 27.6606,-25.835339 48.80238,-25.835339 30.52891,0 55.27158,21.824689 55.27158,48.748579 0,9.51959 -3.08353,18.39764 -8.43934,25.90156 5.35581,7.50392 8.43934,16.38198 8.43934,25.90157 z" fill="#bd3039" /><path d="m 310.59487,137.81842 c 0,-19.31235 -18.65838,-35.04037 -41.57577,-35.04037 -14.74294,0 -27.72685,6.50229 -35.10659,16.2785 v 89.33515 c 7.37974,9.7762 20.36365,16.26608 35.10659,16.26608 22.91739,0 41.57577,-15.70319 41.57577,-35.03209 0,-10.25633 -5.25646,-19.49447 -13.59645,-25.90157 8.33999,-6.41951 13.59645,-15.64524 13.59645,-25.9057 z m 0,184.55588 c 0,-19.3289 -18.65838,-35.04864 -41.57577,-35.04864 -14.74294,0 -27.72685,6.50229 -35.10659,16.28677 v 89.32688 c 7.37974,9.78448 20.36365,16.28264 35.10659,16.28264 22.91739,0 41.57577,-15.71974 41.57577,-35.04864 0,-10.24806 -5.25646,-19.48622 -13.59645,-25.8933 8.33999,-6.41953 13.59645,-15.64938 13.59645,-25.90571 z" fill="#0d2b56" /></g></svg>
