<svg xmlns="http://www.w3.org/2000/svg" xml:space="preserve" style="enable-background:new 0 0 512 512" viewBox="0 0 512 512"><title>Cleveland Guardians cap logo</title><path fill="#002b5c" d="M 512,0 H 0 v 512 h 512 z" /><g><path fill="#f9f9f9" d="m 300.72834,315.12024 v 59.89656 c -15.52652,5.37456 -31.2322,9.9728 -47.83364,13.79472 -15.46681,-4.71768 -30.39616,-9.79366 -44.78806,-15.40709 -0.0597,-78.05066 0.83604,-156.16103 2.26926,-234.21168 14.7502,-6.15089 30.93362,-12.36151 44.84778,-16.95975 14.98907,4.65796 28.96294,9.67422 43.29512,15.10851 0.59717,14.15302 0.29859,35.17355 -0.0597,70.52626 14.27246,2.68728 44.72834,0.3583 78.70755,-4.23994 1.55265,-11.58517 3.46361,-23.17035 5.37456,-34.69581 6.92722,-41.68275 13.49614,-82.589179 19.28873,-120.748603 -30.09758,-4.657958 -62.88244,-7.345241 -79.06585,-5.016263 l -6.21061,16.661158 c -19.64705,-9.793655 -39.7121,-19.109571 -61.3298,-27.828313 -49.74461,19.288723 -95.30899,40.130099 -141.58998,64.07678 8.89789,43.593711 12.3615,77.931221 12.3615,135.439081 0,83.72381 -5.79259,147.80059 -15.82511,189.84165 47.05732,22.39402 92.6217,41.68275 142.008,58.64249 46.69901,-16.18342 93.39803,-33.9792 146.60624,-59.41882 -4.59824,-29.67955 -14.27246,-80.2602 -21.6177,-111.91043 -24.78273,0.6569 -50.22235,2.98588 -76.43829,6.44949" /><path fill="#e31937" d="m 313.80645,326.70541 v 57.68702 c -19.70674,7.16609 -39.89122,13.3767 -61.7478,17.97494 -19.46787,-5.97174 -38.69688,-12.48094 -57.14956,-20.06505 -0.17915,-83.84324 0.77633,-167.98507 2.3887,-251.82831 18.33324,-8.00214 40.18982,-16.30286 57.44815,-22.15516 19.82618,5.91202 37.68168,12.54065 56.07464,19.70674 1.25407,13.85444 1.07492,33.6209 0.59718,67.8987 13.49613,0.3583 32.42655,-1.19435 53.98454,-3.88163 7.34524,-45.50467 14.69048,-90.65103 21.19968,-132.751805 -20.84138,-2.687283 -40.90643,-4.239936 -54.82059,-3.881632 l -8.36043,22.632898 C 301.2658,66.636096 278.99121,56.125832 254.98481,46.153025 210.61477,63.530791 169.70835,82.043188 128.0256,103.24287 c 7.70354,39.77179 10.80885,74.46761 10.80885,128.09384 0,77.93122 -5.01627,139.67902 -13.91416,182.4964 42.04106,19.64703 82.94748,36.66649 126.95921,52.07358 45.14636,-15.82511 89.5164,-32.78485 131.55745,-52.8499 -2.32898,-17.73607 -10.03252,-59.77713 -16.95974,-91.06905 -17.1389,0.83604 -34.51666,2.38869 -52.67076,4.71767" /></g></svg>