<?xml version="1.0" encoding="UTF-8" standalone="no"?>
<svg
   xml:space="preserve"
   viewBox="0 0 575 575"
   version="1.1"
   id="svg7"
   sodipodi:docname="Colorado Cap Insignia.svg"
   width="575"
   height="575"
   inkscape:version="1.3.2 (091e20e, 2023-11-25, custom)"
   xmlns:inkscape="http://www.inkscape.org/namespaces/inkscape"
   xmlns:sodipodi="http://sodipodi.sourceforge.net/DTD/sodipodi-0.dtd"
   xmlns="http://www.w3.org/2000/svg"
   xmlns:svg="http://www.w3.org/2000/svg"><defs
     id="defs7" /><sodipodi:namedview
     id="namedview7"
     pagecolor="#505050"
     bordercolor="#eeeeee"
     borderopacity="1"
     inkscape:showpageshadow="0"
     inkscape:pageopacity="0"
     inkscape:pagecheckerboard="0"
     inkscape:deskcolor="#d1d1d1"
     inkscape:zoom="0.90509668"
     inkscape:cx="635.29125"
     inkscape:cy="323.1699"
     inkscape:window-width="2560"
     inkscape:window-height="1369"
     inkscape:window-x="-8"
     inkscape:window-y="-8"
     inkscape:window-maximized="1"
     inkscape:current-layer="svg7" /><path
     d="M 575,575 H 0 V 0 h 575 z"
     id="path1"
     sodipodi:nodetypes="ccccc"
     style="stroke-width:0.999999" /><path
     d="m 354.5211,262.49874 c -3.26599,29.02931 -13.03864,66.70211 -24.84175,101.30133 l -1.22539,3.5698 a 44.579473,44.579473 0 0 0 -11.82338,-3.04826 c -3.666,-1.03296 -8.13207,-1.03296 -13.03863,-1.03296 -10.98284,0 -22.80116,1.52413 -35.41445,3.5698 -12.22341,1.52414 -25.26205,3.55462 -39.51087,3.55462 -54.54453,0 -92.00972,-22.90243 -115.21595,-54.47365 -23.231564,-31.55096 -33.404225,-71.25424 -33.404225,-106.38008 0,-50.89877 16.284361,-93.15914 44.807325,-124.203743 C 152.94128,54.802137 193.27244,37.5 240.49002,37.5 c 43.57182,0 67.59329,15.266587 77.76595,15.266587 3.68121,0 5.71169,-2.03048 7.34216,-7.1244 h 15.07923 l 3.64576,106.390203 h -19.11996 c -4.48629,-25.95069 -14.65897,-47.34417 -28.92298,-62.104413 -14.26402,-14.74 -32.17885,-22.89231 -52.5495,-22.89231 -54.13438,0 -91.19955,55.481303 -91.19955,134.376433 0,82.97636 38.70576,139.48049 95.69093,139.48049 38.29054,0 67.60848,-25.96588 87.15883,-78.39892 h 19.14021 z"
     style="fill:#c4ced4;stroke-width:0.999998"
     id="path3" /><path
     d="m 179.6363,69.375037 c 0,0 -82.662414,32.386443 -82.753544,137.738623 -0.0912,107.90925 79.715414,128.3103 79.715414,128.3103 0,0 -41.1008,-51.59756 -40.96409,-134.40175 0.14685,-89.15388 44.00221,-131.647173 44.00222,-131.647173 z"
     style="fill:#33006f;stroke-width:0.999998;fill-opacity:1"
     id="path4" /><path
     d="m 494.95354,537.4443 c 0,0 -88.29309,0.0355 -93.85792,0.0557 -2.14189,0.0202 -80.72814,-132.80673 -80.72814,-132.80673 h -21.3226 v 67.4009 c 0,37.22721 11.66134,41.74389 43.05027,41.74389 v 23.64676 H 189.62668 v -23.64676 c 33.76374,0 41.8249,-7.54469 41.8249,-44.26553 V 294.04464 c 0,-37.71837 -7.25099,-45.7694 -41.8249,-45.7694 v -23.64678 c 24.50757,-2.01529 41.01474,-3.50903 73.19358,-5.52938 25.34812,-1.49376 50.29115,-2.51152 63.98299,-2.51152 64.37288,0 128.76602,22.52265 129.01919,92.03503 -0.25317,64.302 -59.71949,78.15585 -69.18831,82.90547 25.7937,5.80282 56.98516,94.13134 74.07463,110.93726 16.51223,14.38048 34.24478,11.4588 34.24478,11.4588 z M 299.03982,380.04899 c 58.3422,1.01272 79.26984,-21.61628 79.26984,-73.44169 0,-39.7286 -20.53774,-65.86662 -59.55746,-65.86662 h -19.71238 z"
     style="fill:#c4ced4;stroke-width:0.999998"
     id="path5" /><path
     d="M 247.91317,513.76209 V 244.19402 l 34.74607,-2.39506 v 271.96313 z m 187.40697,-203.7774 c 0.16202,52.94951 -64.61088,66.29702 -64.61088,66.29702 0,0 23.94553,-14.43617 23.96577,-65.69446 0.0202,-51.76971 -22.90242,-66.42362 -22.90242,-66.42362 0,0 63.36524,5.70663 63.54753,65.82106 z m -63.60322,86.85502 c 17.55531,8.83084 42.63,48.01762 56.02308,80.05976 14.44124,28.90273 24.77088,37.11581 24.77088,37.11581 l -49.53162,-0.10633 c 0,0 -44.77189,-80.0395 -65.34509,-108.7093 0,0 15.10457,-2.39506 22.4771,-4.51668 6.71932,-1.9039 11.60565,-3.84324 11.60565,-3.84324 z"
     style="fill:#33006f;stroke-width:0.999998;fill-opacity:1"
     id="path6" /></svg>
