<?xml version="1.0" encoding="UTF-8" standalone="no"?>
<!DOCTYPE svg PUBLIC "-//W3C//DTD SVG 1.1//EN" "http://www.w3.org/Graphics/SVG/1.1/DTD/svg11.dtd">
<svg xmlns="http://www.w3.org/2000/svg" version="1.1" viewBox="0.00 0.00 185.00 185.00">
<g stroke-width="2.00" fill="none" stroke-linecap="butt">
<path stroke="#575757" vector-effect="non-scaling-stroke" d="
  M 122.87 108.53
  C 124.10 116.72 123.28 129.40 123.23 145.18
  Q 123.23 145.71 122.75 145.95
  C 119.36 147.64 112.88 147.24 109.02 147.46
  Q 108.50 147.49 108.50 148.00
  L 108.50 160.00
  A 0.50 0.50 0.0 0 0 109.00 160.50
  L 162.50 160.50
  Q 163.00 160.50 163.00 160.00
  L 163.00 147.98
  Q 163.00 147.40 162.42 147.42
  Q 156.55 147.62 150.97 145.93
  A 1.74 1.74 0.0 0 1 149.74 144.25
  Q 149.86 126.92 149.49 108.94
  C 149.11 90.80 134.33 83.24 118.06 84.36
  Q 117.54 84.40 117.17 84.03
  C 110.59 77.55 102.10 74.15 93.19 71.32
  Q 92.75 71.18 92.75 70.72
  L 92.75 48.75
  Q 92.75 48.23 92.34 47.91
  L 88.24 44.76
  Q 87.77 44.39 87.20 44.54
  C 76.32 47.40 65.32 48.59 54.15 49.98
  Q 53.52 50.06 53.70 49.45
  C 56.74 38.98 73.61 39.16 81.73 41.15
  Q 99.88 45.59 103.57 65.01
  Q 103.71 65.72 104.43 65.72
  L 116.38 65.81
  Q 117.07 65.81 117.09 65.12
  L 117.94 35.06
  Q 117.96 34.41 117.36 34.17
  C 95.79 25.61 61.92 20.91 41.33 34.35
  C 29.71 41.93 23.42 54.03 29.41 67.33
  C 35.38 80.61 52.44 85.74 65.66 88.99
  Q 66.25 89.13 66.25 89.74
  L 66.25 117.75
  Q 66.25 118.55 65.47 118.35
  Q 44.82 113.08 38.49 92.76
  Q 38.33 92.25 37.80 92.25
  L 23.80 92.25
  Q 22.84 92.25 22.99 93.20
  L 27.50 122.01
  Q 27.56 122.40 27.91 122.57
  Q 45.86 131.54 65.83 133.81
  A 0.48 0.47 3.4 0 1 66.25 134.28
  L 66.24 145.15
  A 1.30 1.29 87.3 0 1 65.07 146.44
  L 53.10 147.49
  A 0.67 0.66 -2.9 0 0 52.50 148.15
  L 52.50 160.00
  Q 52.50 160.50 53.00 160.50
  L 106.50 160.50
  Q 107.00 160.50 107.00 160.00
  L 107.00 147.74
  Q 107.00 147.18 106.44 147.21
  Q 100.01 147.61 93.91 145.59
  Q 92.78 145.22 92.78 144.04
  L 92.69 132.41
  Q 92.69 131.92 93.17 131.80
  C 105.64 128.79 118.25 121.22 122.49 108.50
  Q 122.75 107.72 122.87 108.53"
/>
<path stroke="#ceb350" vector-effect="non-scaling-stroke" d="
  M 111.31 84.94
  C 95.73 72.55 73.23 73.75 56.46 63.52
  C 47.03 57.78 46.46 45.80 55.85 39.68
  C 63.01 35.01 75.19 34.57 83.35 36.68
  Q 102.27 41.56 107.06 60.81
  Q 107.16 61.24 107.61 61.26
  L 112.16 61.47
  Q 112.82 61.50 112.84 60.84
  L 113.42 38.07
  Q 113.43 37.49 112.89 37.29
  C 91.34 29.34 54.31 24.52 36.77 44.02
  C 28.55 53.16 30.63 67.05 40.50 74.01
  C 52.48 82.46 69.81 85.39 84.27 89.66
  Q 92.92 92.21 97.52 98.22
  C 103.23 105.69 101.34 115.51 93.03 120.55
  Q 92.50 120.86 92.50 121.48
  L 92.50 126.77
  Q 92.50 127.33 93.04 127.19
  C 102.04 124.91 112.61 119.10 116.82 110.46
  C 121.18 101.51 119.28 91.27 111.31 84.94"
/>
<path stroke="#ceb350" vector-effect="non-scaling-stroke" d="
  M 58.89 59.35
  Q 65.63 58.95 69.50 64.26
  Q 69.81 64.69 70.32 64.83
  L 87.70 69.72
  A 0.47 0.47 0.0 0 0 88.30 69.26
  Q 88.18 60.79 88.25 52.00
  C 88.27 49.80 87.79 49.12 85.48 49.64
  Q 71.99 52.62 58.17 53.87
  A 0.60 0.59 86.0 0 0 57.63 54.50
  L 57.80 58.37
  Q 57.85 59.41 58.89 59.35"
/>
<path stroke="#ceb350" vector-effect="non-scaling-stroke" d="
  M 158.03 151.75
  C 152.55 151.43 145.22 150.86 145.25 143.27
  Q 145.30 128.15 145.21 113.02
  Q 145.17 105.01 143.69 101.31
  C 139.97 92.03 130.47 88.80 121.00 88.56
  Q 120.31 88.54 120.64 89.15
  Q 123.40 94.24 123.50 100.09
  Q 123.51 100.64 123.89 101.03
  Q 127.49 104.75 127.49 109.50
  Q 127.51 126.75 127.50 143.99
  C 127.50 151.62 119.98 151.84 114.16 151.44
  A 1.09 1.09 0.0 0 0 113.00 152.53
  L 113.00 155.54
  A 0.48 0.48 0.0 0 0 113.48 156.02
  L 158.05 155.99
  Q 158.65 155.99 158.65 155.39
  L 158.68 152.44
  Q 158.68 151.79 158.03 151.75"
/>
<path stroke="#ceb350" vector-effect="non-scaling-stroke" d="
  M 88.25 99.16
  L 88.25 96.35
  Q 88.25 95.72 87.66 95.54
  L 71.14 90.40
  Q 70.51 90.20 70.51 90.87
  Q 70.49 117.31 70.49 143.73
  C 70.49 151.48 62.88 151.60 57.51 151.59
  Q 56.81 151.59 56.80 152.29
  L 56.74 155.31
  Q 56.73 156.02 57.44 156.02
  L 101.88 155.99
  Q 102.50 155.99 102.50 155.37
  L 102.50 152.22
  Q 102.50 151.63 101.90 151.60
  C 97.10 151.40 88.28 150.70 88.27 143.69
  Q 88.23 125.14 88.26 106.55
  Q 88.26 105.92 88.74 105.50
  L 93.65 101.19
  Q 94.09 100.81 93.69 100.39
  L 91.83 98.44
  Q 91.37 97.97 90.82 98.33
  L 88.95 99.54
  Q 88.25 100.00 88.25 99.16"
/>
<path stroke="#ceb350" vector-effect="non-scaling-stroke" d="
  M 65.67 122.99
  Q 43.68 118.01 35.16 97.24
  Q 34.99 96.81 34.53 96.80
  L 28.51 96.63
  A 0.38 0.38 0.0 0 0 28.13 97.07
  L 31.54 118.88
  Q 31.63 119.43 32.14 119.67
  Q 47.97 127.07 65.35 129.27
  Q 66.25 129.38 66.25 128.47
  L 66.25 123.73
  Q 66.25 123.13 65.67 122.99"
/>
<path stroke="#575757" vector-effect="non-scaling-stroke" d="
  M 93.66 114.54
  Q 96.91 110.80 96.17 105.75
  Q 96.06 105.00 95.47 105.48
  L 93.15 107.42
  Q 92.75 107.75 92.75 108.27
  L 92.75 114.20
  Q 92.75 115.58 93.66 114.54"
/>
</g>
<path fill="#0e0e0e" d="
  M 0.00 0.00
  L 185.00 0.00
  L 185.00 185.00
  L 0.00 185.00
  L 0.00 0.00
  Z
  M 122.87 108.53
  C 124.10 116.72 123.28 129.40 123.23 145.18
  Q 123.23 145.71 122.75 145.95
  C 119.36 147.64 112.88 147.24 109.02 147.46
  Q 108.50 147.49 108.50 148.00
  L 108.50 160.00
  A 0.50 0.50 0.0 0 0 109.00 160.50
  L 162.50 160.50
  Q 163.00 160.50 163.00 160.00
  L 163.00 147.98
  Q 163.00 147.40 162.42 147.42
  Q 156.55 147.62 150.97 145.93
  A 1.74 1.74 0.0 0 1 149.74 144.25
  Q 149.86 126.92 149.49 108.94
  C 149.11 90.80 134.33 83.24 118.06 84.36
  Q 117.54 84.40 117.17 84.03
  C 110.59 77.55 102.10 74.15 93.19 71.32
  Q 92.75 71.18 92.75 70.72
  L 92.75 48.75
  Q 92.75 48.23 92.34 47.91
  L 88.24 44.76
  Q 87.77 44.39 87.20 44.54
  C 76.32 47.40 65.32 48.59 54.15 49.98
  Q 53.52 50.06 53.70 49.45
  C 56.74 38.98 73.61 39.16 81.73 41.15
  Q 99.88 45.59 103.57 65.01
  Q 103.71 65.72 104.43 65.72
  L 116.38 65.81
  Q 117.07 65.81 117.09 65.12
  L 117.94 35.06
  Q 117.96 34.41 117.36 34.17
  C 95.79 25.61 61.92 20.91 41.33 34.35
  C 29.71 41.93 23.42 54.03 29.41 67.33
  C 35.38 80.61 52.44 85.74 65.66 88.99
  Q 66.25 89.13 66.25 89.74
  L 66.25 117.75
  Q 66.25 118.55 65.47 118.35
  Q 44.82 113.08 38.49 92.76
  Q 38.33 92.25 37.80 92.25
  L 23.80 92.25
  Q 22.84 92.25 22.99 93.20
  L 27.50 122.01
  Q 27.56 122.40 27.91 122.57
  Q 45.86 131.54 65.83 133.81
  A 0.48 0.47 3.4 0 1 66.25 134.28
  L 66.24 145.15
  A 1.30 1.29 87.3 0 1 65.07 146.44
  L 53.10 147.49
  A 0.67 0.66 -2.9 0 0 52.50 148.15
  L 52.50 160.00
  Q 52.50 160.50 53.00 160.50
  L 106.50 160.50
  Q 107.00 160.50 107.00 160.00
  L 107.00 147.74
  Q 107.00 147.18 106.44 147.21
  Q 100.01 147.61 93.91 145.59
  Q 92.78 145.22 92.78 144.04
  L 92.69 132.41
  Q 92.69 131.92 93.17 131.80
  C 105.64 128.79 118.25 121.22 122.49 108.50
  Q 122.75 107.72 122.87 108.53
  Z"
/>
<path fill="#9f9fa0" d="
  M 122.49 108.50
  C 118.25 121.22 105.64 128.79 93.17 131.80
  Q 92.69 131.92 92.69 132.41
  L 92.78 144.04
  Q 92.78 145.22 93.91 145.59
  Q 100.01 147.61 106.44 147.21
  Q 107.00 147.18 107.00 147.74
  L 107.00 160.00
  Q 107.00 160.50 106.50 160.50
  L 53.00 160.50
  Q 52.50 160.50 52.50 160.00
  L 52.50 148.15
  A 0.67 0.66 -2.9 0 1 53.10 147.49
  L 65.07 146.44
  A 1.30 1.29 87.3 0 0 66.24 145.15
  L 66.25 134.28
  A 0.48 0.47 3.4 0 0 65.83 133.81
  Q 45.86 131.54 27.91 122.57
  Q 27.56 122.40 27.50 122.01
  L 22.99 93.20
  Q 22.84 92.25 23.80 92.25
  L 37.80 92.25
  Q 38.33 92.25 38.49 92.76
  Q 44.82 113.08 65.47 118.35
  Q 66.25 118.55 66.25 117.75
  L 66.25 89.74
  Q 66.25 89.13 65.66 88.99
  C 52.44 85.74 35.38 80.61 29.41 67.33
  C 23.42 54.03 29.71 41.93 41.33 34.35
  C 61.92 20.91 95.79 25.61 117.36 34.17
  Q 117.96 34.41 117.94 35.06
  L 117.09 65.12
  Q 117.07 65.81 116.38 65.81
  L 104.43 65.72
  Q 103.71 65.72 103.57 65.01
  Q 99.88 45.59 81.73 41.15
  C 73.61 39.16 56.74 38.98 53.70 49.45
  Q 53.52 50.06 54.15 49.98
  C 65.32 48.59 76.32 47.40 87.20 44.54
  Q 87.77 44.39 88.24 44.76
  L 92.34 47.91
  Q 92.75 48.23 92.75 48.75
  L 92.75 70.72
  Q 92.75 71.18 93.19 71.32
  C 102.10 74.15 110.59 77.55 117.17 84.03
  Q 117.54 84.40 118.06 84.36
  C 134.33 83.24 149.11 90.80 149.49 108.94
  Q 149.86 126.92 149.74 144.25
  A 1.74 1.74 0.0 0 0 150.97 145.93
  Q 156.55 147.62 162.42 147.42
  Q 163.00 147.40 163.00 147.98
  L 163.00 160.00
  Q 163.00 160.50 162.50 160.50
  L 109.00 160.50
  A 0.50 0.50 0.0 0 1 108.50 160.00
  L 108.50 148.00
  Q 108.50 147.49 109.02 147.46
  C 112.88 147.24 119.36 147.64 122.75 145.95
  Q 123.23 145.71 123.23 145.18
  C 123.28 129.40 124.10 116.72 122.87 108.53
  Q 122.75 107.72 122.49 108.50
  Z
  M 111.31 84.94
  C 95.73 72.55 73.23 73.75 56.46 63.52
  C 47.03 57.78 46.46 45.80 55.85 39.68
  C 63.01 35.01 75.19 34.57 83.35 36.68
  Q 102.27 41.56 107.06 60.81
  Q 107.16 61.24 107.61 61.26
  L 112.16 61.47
  Q 112.82 61.50 112.84 60.84
  L 113.42 38.07
  Q 113.43 37.49 112.89 37.29
  C 91.34 29.34 54.31 24.52 36.77 44.02
  C 28.55 53.16 30.63 67.05 40.50 74.01
  C 52.48 82.46 69.81 85.39 84.27 89.66
  Q 92.92 92.21 97.52 98.22
  C 103.23 105.69 101.34 115.51 93.03 120.55
  Q 92.50 120.86 92.50 121.48
  L 92.50 126.77
  Q 92.50 127.33 93.04 127.19
  C 102.04 124.91 112.61 119.10 116.82 110.46
  C 121.18 101.51 119.28 91.27 111.31 84.94
  Z
  M 58.89 59.35
  Q 65.63 58.95 69.50 64.26
  Q 69.81 64.69 70.32 64.83
  L 87.70 69.72
  A 0.47 0.47 0.0 0 0 88.30 69.26
  Q 88.18 60.79 88.25 52.00
  C 88.27 49.80 87.79 49.12 85.48 49.64
  Q 71.99 52.62 58.17 53.87
  A 0.60 0.59 86.0 0 0 57.63 54.50
  L 57.80 58.37
  Q 57.85 59.41 58.89 59.35
  Z
  M 158.03 151.75
  C 152.55 151.43 145.22 150.86 145.25 143.27
  Q 145.30 128.15 145.21 113.02
  Q 145.17 105.01 143.69 101.31
  C 139.97 92.03 130.47 88.80 121.00 88.56
  Q 120.31 88.54 120.64 89.15
  Q 123.40 94.24 123.50 100.09
  Q 123.51 100.64 123.89 101.03
  Q 127.49 104.75 127.49 109.50
  Q 127.51 126.75 127.50 143.99
  C 127.50 151.62 119.98 151.84 114.16 151.44
  A 1.09 1.09 0.0 0 0 113.00 152.53
  L 113.00 155.54
  A 0.48 0.48 0.0 0 0 113.48 156.02
  L 158.05 155.99
  Q 158.65 155.99 158.65 155.39
  L 158.68 152.44
  Q 158.68 151.79 158.03 151.75
  Z
  M 88.25 99.16
  L 88.25 96.35
  Q 88.25 95.72 87.66 95.54
  L 71.14 90.40
  Q 70.51 90.20 70.51 90.87
  Q 70.49 117.31 70.49 143.73
  C 70.49 151.48 62.88 151.60 57.51 151.59
  Q 56.81 151.59 56.80 152.29
  L 56.74 155.31
  Q 56.73 156.02 57.44 156.02
  L 101.88 155.99
  Q 102.50 155.99 102.50 155.37
  L 102.50 152.22
  Q 102.50 151.63 101.90 151.60
  C 97.10 151.40 88.28 150.70 88.27 143.69
  Q 88.23 125.14 88.26 106.55
  Q 88.26 105.92 88.74 105.50
  L 93.65 101.19
  Q 94.09 100.81 93.69 100.39
  L 91.83 98.44
  Q 91.37 97.97 90.82 98.33
  L 88.95 99.54
  Q 88.25 100.00 88.25 99.16
  Z
  M 65.67 122.99
  Q 43.68 118.01 35.16 97.24
  Q 34.99 96.81 34.53 96.80
  L 28.51 96.63
  A 0.38 0.38 0.0 0 0 28.13 97.07
  L 31.54 118.88
  Q 31.63 119.43 32.14 119.67
  Q 47.97 127.07 65.35 129.27
  Q 66.25 129.38 66.25 128.47
  L 66.25 123.73
  Q 66.25 123.13 65.67 122.99
  Z
  M 93.66 114.54
  Q 96.91 110.80 96.17 105.75
  Q 96.06 105.00 95.47 105.48
  L 93.15 107.42
  Q 92.75 107.75 92.75 108.27
  L 92.75 114.20
  Q 92.75 115.58 93.66 114.54
  Z"
/>
<path fill="#fcc700" d="
  M 111.31 84.94
  C 119.28 91.27 121.18 101.51 116.82 110.46
  C 112.61 119.10 102.04 124.91 93.04 127.19
  Q 92.50 127.33 92.50 126.77
  L 92.50 121.48
  Q 92.50 120.86 93.03 120.55
  C 101.34 115.51 103.23 105.69 97.52 98.22
  Q 92.92 92.21 84.27 89.66
  C 69.81 85.39 52.48 82.46 40.50 74.01
  C 30.63 67.05 28.55 53.16 36.77 44.02
  C 54.31 24.52 91.34 29.34 112.89 37.29
  Q 113.43 37.49 113.42 38.07
  L 112.84 60.84
  Q 112.82 61.50 112.16 61.47
  L 107.61 61.26
  Q 107.16 61.24 107.06 60.81
  Q 102.27 41.56 83.35 36.68
  C 75.19 34.57 63.01 35.01 55.85 39.68
  C 46.46 45.80 47.03 57.78 56.46 63.52
  C 73.23 73.75 95.73 72.55 111.31 84.94
  Z"
/>
<path fill="#fcc700" d="
  M 58.89 59.35
  Q 57.85 59.41 57.80 58.37
  L 57.63 54.50
  A 0.60 0.59 86.0 0 1 58.17 53.87
  Q 71.99 52.62 85.48 49.64
  C 87.79 49.12 88.27 49.80 88.25 52.00
  Q 88.18 60.79 88.30 69.26
  A 0.47 0.47 0.0 0 1 87.70 69.72
  L 70.32 64.83
  Q 69.81 64.69 69.50 64.26
  Q 65.63 58.95 58.89 59.35
  Z"
/>
<path fill="#fcc700" d="
  M 158.68 152.44
  L 158.65 155.39
  Q 158.65 155.99 158.05 155.99
  L 113.48 156.02
  A 0.48 0.48 0.0 0 1 113.00 155.54
  L 113.00 152.53
  A 1.09 1.09 0.0 0 1 114.16 151.44
  C 119.98 151.84 127.50 151.62 127.50 143.99
  Q 127.51 126.75 127.49 109.50
  Q 127.49 104.75 123.89 101.03
  Q 123.51 100.64 123.50 100.09
  Q 123.40 94.24 120.64 89.15
  Q 120.31 88.54 121.00 88.56
  C 130.47 88.80 139.97 92.03 143.69 101.31
  Q 145.17 105.01 145.21 113.02
  Q 145.30 128.15 145.25 143.27
  C 145.22 150.86 152.55 151.43 158.03 151.75
  Q 158.68 151.79 158.68 152.44
  Z"
/>
<path fill="#fcc700" d="
  M 88.95 99.54
  L 90.82 98.33
  Q 91.37 97.97 91.83 98.44
  L 93.69 100.39
  Q 94.09 100.81 93.65 101.19
  L 88.74 105.50
  Q 88.26 105.92 88.26 106.55
  Q 88.23 125.14 88.27 143.69
  C 88.28 150.70 97.10 151.40 101.90 151.60
  Q 102.50 151.63 102.50 152.22
  L 102.50 155.37
  Q 102.50 155.99 101.88 155.99
  L 57.44 156.02
  Q 56.73 156.02 56.74 155.31
  L 56.80 152.29
  Q 56.81 151.59 57.51 151.59
  C 62.88 151.60 70.49 151.48 70.49 143.73
  Q 70.49 117.31 70.51 90.87
  Q 70.51 90.20 71.14 90.40
  L 87.66 95.54
  Q 88.25 95.72 88.25 96.35
  L 88.25 99.16
  Q 88.25 100.00 88.95 99.54
  Z"
/>
<path fill="#fcc700" d="
  M 65.67 122.99
  Q 66.25 123.13 66.25 123.73
  L 66.25 128.47
  Q 66.25 129.38 65.35 129.27
  Q 47.97 127.07 32.14 119.67
  Q 31.63 119.43 31.54 118.88
  L 28.13 97.07
  A 0.38 0.38 0.0 0 1 28.51 96.63
  L 34.53 96.80
  Q 34.99 96.81 35.16 97.24
  Q 43.68 118.01 65.67 122.99
  Z"
/>
<path fill="#0e0e0e" d="
  M 93.66 114.54
  Q 92.75 115.58 92.75 114.20
  L 92.75 108.27
  Q 92.75 107.75 93.15 107.42
  L 95.47 105.48
  Q 96.06 105.00 96.17 105.75
  Q 96.91 110.80 93.66 114.54
  Z"
/>
</svg>
