<?xml version="1.0" encoding="UTF-8" standalone="no"?>
<!DOCTYPE svg PUBLIC "-//W3C//DTD SVG 1.1//EN" "http://www.w3.org/Graphics/SVG/1.1/DTD/svg11.dtd">
<svg xmlns="http://www.w3.org/2000/svg" version="1.1" viewBox="0 0 125 125">
<g stroke-width="2.00" fill="none" stroke-linecap="butt">
<path stroke="#80b1cc" vector-effect="non-scaling-stroke" d="
  M 38.75 18.82
  A 0.33 0.33 0.0 0 1 39.08 18.49
  L 105.03 18.51
  A 0.33 0.33 0.0 0 0 105.36 18.18
  L 105.24 10.08
  A 0.33 0.33 0.0 0 0 104.91 9.75
  L 29.33 9.75
  A 0.33 0.33 0.0 0 0 29.00 10.08
  L 29.00 97.82
  A 0.33 0.33 0.0 0 0 29.10 98.06
  L 38.19 107.03
  A 0.33 0.33 0.0 0 0 38.75 106.79
  L 38.75 18.82"
/>
<path stroke="#80b1cc" vector-effect="non-scaling-stroke" d="
  M 50.00 30.34
  A 0.34 0.34 0.0 0 1 50.34 30.00
  L 105.00 30.00
  A 0.34 0.34 0.0 0 0 105.34 29.66
  L 105.28 21.62
  A 0.34 0.34 0.0 0 0 104.94 21.28
  L 41.59 21.18
  A 0.34 0.34 0.0 0 0 41.25 21.52
  L 41.25 54.41
  A 0.34 0.34 0.0 0 0 41.59 54.75
  L 88.70 54.75
  A 0.34 0.34 0.0 0 0 89.04 54.41
  L 88.98 45.34
  A 0.34 0.34 0.0 0 0 88.64 45.00
  L 50.34 45.00
  A 0.34 0.34 0.0 0 1 50.00 44.66
  L 50.00 30.34"
/>
<path stroke="#80b1cc" vector-effect="non-scaling-stroke" d="
  M 50.00 66.30
  A 0.30 0.30 0.0 0 1 50.30 66.00
  L 88.78 66.00
  A 0.30 0.30 0.0 0 0 89.08 65.70
  L 88.96 57.55
  A 0.30 0.30 0.0 0 0 88.66 57.25
  L 41.55 57.25
  A 0.30 0.30 0.0 0 0 41.25 57.55
  L 41.25 109.28
  A 0.30 0.30 0.0 0 0 41.34 109.49
  L 49.49 117.61
  A 0.30 0.30 0.0 0 0 50.00 117.40
  L 50.00 66.30"
/>
</g>
<path fill="#016299" d="
  M 0.00 0.00
  L 125.00 0.00
  L 125.00 125.00
  L 0.00 125.00
  L 0.00 0.00
  Z
  M 38.75 18.82
  A 0.33 0.33 0.0 0 1 39.08 18.49
  L 105.03 18.51
  A 0.33 0.33 0.0 0 0 105.36 18.18
  L 105.24 10.08
  A 0.33 0.33 0.0 0 0 104.91 9.75
  L 29.33 9.75
  A 0.33 0.33 0.0 0 0 29.00 10.08
  L 29.00 97.82
  A 0.33 0.33 0.0 0 0 29.10 98.06
  L 38.19 107.03
  A 0.33 0.33 0.0 0 0 38.75 106.79
  L 38.75 18.82
  Z
  M 50.00 30.34
  A 0.34 0.34 0.0 0 1 50.34 30.00
  L 105.00 30.00
  A 0.34 0.34 0.0 0 0 105.34 29.66
  L 105.28 21.62
  A 0.34 0.34 0.0 0 0 104.94 21.28
  L 41.59 21.18
  A 0.34 0.34 0.0 0 0 41.25 21.52
  L 41.25 54.41
  A 0.34 0.34 0.0 0 0 41.59 54.75
  L 88.70 54.75
  A 0.34 0.34 0.0 0 0 89.04 54.41
  L 88.98 45.34
  A 0.34 0.34 0.0 0 0 88.64 45.00
  L 50.34 45.00
  A 0.34 0.34 0.0 0 1 50.00 44.66
  L 50.00 30.34
  Z
  M 50.00 66.30
  A 0.30 0.30 0.0 0 1 50.30 66.00
  L 88.78 66.00
  A 0.30 0.30 0.0 0 0 89.08 65.70
  L 88.96 57.55
  A 0.30 0.30 0.0 0 0 88.66 57.25
  L 41.55 57.25
  A 0.30 0.30 0.0 0 0 41.25 57.55
  L 41.25 109.28
  A 0.30 0.30 0.0 0 0 41.34 109.49
  L 49.49 117.61
  A 0.30 0.30 0.0 0 0 50.00 117.40
  L 50.00 66.30
  Z"
/>
<path fill="#ffffff" d="
  M 38.75 18.82
  L 38.75 106.79
  A 0.33 0.33 0.0 0 1 38.19 107.03
  L 29.10 98.06
  A 0.33 0.33 0.0 0 1 29.00 97.82
  L 29.00 10.08
  A 0.33 0.33 0.0 0 1 29.33 9.75
  L 104.91 9.75
  A 0.33 0.33 0.0 0 1 105.24 10.08
  L 105.36 18.18
  A 0.33 0.33 0.0 0 1 105.03 18.51
  L 39.08 18.49
  A 0.33 0.33 0.0 0 0 38.75 18.82
  Z"
/>
<path fill="#ffffff" d="
  M 50.00 30.34
  L 50.00 44.66
  A 0.34 0.34 0.0 0 0 50.34 45.00
  L 88.64 45.00
  A 0.34 0.34 0.0 0 1 88.98 45.34
  L 89.04 54.41
  A 0.34 0.34 0.0 0 1 88.70 54.75
  L 41.59 54.75
  A 0.34 0.34 0.0 0 1 41.25 54.41
  L 41.25 21.52
  A 0.34 0.34 0.0 0 1 41.59 21.18
  L 104.94 21.28
  A 0.34 0.34 0.0 0 1 105.28 21.62
  L 105.34 29.66
  A 0.34 0.34 0.0 0 1 105.00 30.00
  L 50.34 30.00
  A 0.34 0.34 0.0 0 0 50.00 30.34
  Z"
/>
<path fill="#ffffff" d="
  M 50.00 66.30
  L 50.00 117.40
  A 0.30 0.30 0.0 0 1 49.49 117.61
  L 41.34 109.49
  A 0.30 0.30 0.0 0 1 41.25 109.28
  L 41.25 57.55
  A 0.30 0.30 0.0 0 1 41.55 57.25
  L 88.66 57.25
  A 0.30 0.30 0.0 0 1 88.96 57.55
  L 89.08 65.70
  A 0.30 0.30 0.0 0 1 88.78 66.00
  L 50.30 66.00
  A 0.30 0.30 0.0 0 0 50.00 66.30
  Z"
/>
</svg>
