<svg xmlns="http://www.w3.org/2000/svg" width="250" height="250" viewBox="0 0 250 250">
<g>
	<rect y="0.02" style="fill:#0031a7;" width="250" height="250"/>
	<path style="fill:#FFFFFF;" 
d="m 38.106,43.6625 c 0,-15.488 -9.415,-20.447 -17.837,-20.348 l -2.777,-0.099 v -8.026 H 49.23 72.454 l 0.016,8.187 c -7.881,0.648 -15.93,5.958 -15.93,20.287 l -0.008,48.21 3.83,-2.365 c 7.919,-12.382 28.694,-45.181 33.028,-54.642 5.31,-11.62 -2.815,-11.62 -10.62,-11.62 v -8.102 h 48.721 v 8.102 h -3.441 c -5.31,0 -11.864,0 -20.607,11.971 -11.2,15.328 -33.424,52.459 -33.424,52.459 34.042,2.815 46.852,54.581 55.595,61.615 -5.005,-36.972 19.668,-83.092 55.901,-81.329 4.066,0.19 9.056,-0.359 20.606,3.166 11.566,3.525 12.619,-2.815 14.176,-9.857 h 8.637 v 60.913 h -7.478 c -0.617,-10.566 -5.348,-45.44 -35.835,-46.478 -31.028,-1.053 -36.842,38.711 -37.27,65.834 -1.557,100.349 61.531,97.19 73.074,64.788 1.693,-4.707 0.954,-6.02 -0.931,-7.034 -13.74,-7.393 2.189,-27.115 11.017,-9.857 4.052,7.904 -3.204,45.418 -41,45.418 -58.716,0 -75.89,-90.851 -97.748,-120.415 -17.029,-23.033 -30.922,-12.68 -36.148,-7.042 l -0.229,15.831 0.145,28.175 c 0,15.487 9.407,20.454 17.837,20.348 l 2.777,0.106 v 8.019 H 47.323 17.492 v -8.019 l 2.777,-0.106 c 8.423,0.106 17.837,-4.86 17.837,-20.348 V 43.6625"/>
		v-10.414h3.686l2.426,6.806h0.038l2.525-6.806h3.67 M227.936,224.987h-3.143v8.561h-2.129v-8.561h-3.136v-1.854h8.407V224.987z"/>
</g>
</svg>