<?xml version="1.0" encoding="UTF-8" standalone="no"?>
<svg
   xml:space="preserve"
   viewBox="0 0 575 575"
   version="1.1"
   id="svg3"
   sodipodi:docname="Los Angeles Dodgers logo.svg"
   width="575"
   height="575"
   inkscape:version="1.3.2 (091e20e, 2023-11-25, custom)"
   xmlns:inkscape="http://www.inkscape.org/namespaces/inkscape"
   xmlns:sodipodi="http://sodipodi.sourceforge.net/DTD/sodipodi-0.dtd"
   xmlns="http://www.w3.org/2000/svg"
   xmlns:svg="http://www.w3.org/2000/svg"><defs
     id="defs3" /><sodipodi:namedview
     id="namedview3"
     pagecolor="#505050"
     bordercolor="#eeeeee"
     borderopacity="1" /><path
     d="M 575,575 H 0 V 0 h 575 z"
     style="fill:#005a9c;stroke-width:1"
     id="path1"
     sodipodi:nodetypes="ccccc" /><path
     d="m 410.53576,313.89662 v 51.17083 l -22.69445,0.0144 C 386.7918,360.66721 338.62989,159.28166 338.62989,159.28166 H 266.4159 c 0,0 -48.08007,201.38555 -49.15846,205.80023 H 200.15717 V 85.955583 h 37.73902 V 37.5 l -122.81673,0.312927 v 48.142656 h 35.57743 V 367.49865 H 113.1345 v 48.87924 h 91.86582 l -16.66699,69.71056 H 150.9987 V 537.5 l 127.55397,-0.22627 v -51.18528 h -35.92405 c 1.39132,-6.32594 15.00606,-65.60399 15.89189,-69.71056 h 87.99514 c 0.99174,4.10175 14.55353,63.38462 15.96411,69.71056 h -35.95294 v 51.18528 l 127.5636,0.22627 -0.0433,-51.41155 h -37.30574 c -0.92434,-4.01028 -15.13124,-63.35092 -16.63329,-69.71056 h 61.7574 V 313.89662 h -51.3297 M 270.2529,365.08189 c 1.52613,-6.40779 28.59193,-124.54024 32.26521,-140.79801 3.75513,16.25777 30.80649,134.39022 32.25558,140.79801 z"
     style="display:inline;fill:#ffffff;stroke-width:1"
     id="path3"
     sodipodi:nodetypes="ccccccccccccccccccccccccccccccccccccccc" /></svg>
