<?xml version="1.0" encoding="UTF-8" standalone="no"?>
<svg
   viewBox="0 0 250 250"
   version="1.1"
   id="svg12"
   sodipodi:docname="Twins Cap insignia.svg"
   xml:space="preserve"
   width="250"
   height="250"
   inkscape:version="1.2 (dc2aedaf03, 2022-05-15)"
   xmlns:inkscape="http://www.inkscape.org/namespaces/inkscape"
   xmlns:sodipodi="http://sodipodi.sourceforge.net/DTD/sodipodi-0.dtd"
   xmlns="http://www.w3.org/2000/svg"
   xmlns:svg="http://www.w3.org/2000/svg"
   xmlns:rdf="http://www.w3.org/1999/02/22-rdf-syntax-ns#"
   xmlns:cc="http://creativecommons.org/ns#"
   xmlns:dc="http://purl.org/dc/elements/1.1/"><defs
     id="defs16" /><sodipodi:namedview
     id="namedview14"
     pagecolor="#505050"
     bordercolor="#eeeeee"
     borderopacity="1"
     inkscape:showpageshadow="0"
     inkscape:pageopacity="0"
     inkscape:pagecheckerboard="0"
     inkscape:deskcolor="#505050"
     showgrid="false"
     inkscape:zoom="2"
     inkscape:cx="175"
     inkscape:cy="110"
     inkscape:window-width="2560"
     inkscape:window-height="1369"
     inkscape:window-x="-8"
     inkscape:window-y="-8"
     inkscape:window-maximized="1"
     inkscape:current-layer="svg12" /><title
     id="title2">Minnesota Twins TC logo</title><rect
     style="opacity:1;fill:#091f40;fill-opacity:1;stroke:none;stroke-width:0.794751;stroke-miterlimit:3.8637"
     id="rect491"
     width="250"
     height="250"
     x="0"
     y="0" /><path
     fill="#091f40"
     d="m 135.59941,202.33918 c -5.55555,0 -10.96491,-0.2924 -16.08187,-0.87719 -0.58479,12.5731 -3.65497,24.7076 -8.04093,37.5731 h 46.78362 c -4.38596,-12.8655 -7.45614,-24.8538 -8.04093,-37.4269 -4.82456,0.43859 -9.64912,0.73099 -14.61989,0.73099"
     id="path4"
     style="fill:#ffffff;stroke-width:1.46199" /><path
     fill="#e31e34"
     d="m 150.0731,176.16959 c -4.67836,0.5848 -9.64912,1.02339 -14.76608,1.02339 -5.40936,0 -10.67252,-0.2924 -15.49708,-1.02339 -15.64327,-2.19298 -28.362572,-7.45614 -37.134501,-14.47368 -9.356725,-7.45614 -15.350878,-17.25147 -15.350878,-28.07018 0,-10.81871 5.847954,-20.61403 15.350878,-28.07017 8.918128,-7.017548 21.637431,-12.426905 37.280701,-14.473689 V 65.643275 C 90.277778,68.71345 68.494152,80.847953 47.295322,102.04678 c -8.77193,8.77193 -18.859649,20.46784 -30.847953,31.72515 11.988304,11.11111 22.076023,22.95322 30.847953,31.72515 21.052631,21.05263 42.836257,33.18713 72.368418,36.4035 5.11696,0.5848 10.52632,0.8772 16.08187,0.8772 4.97076,0 9.94152,-0.2924 14.61989,-0.731 44.15204,-4.09356 75.1462,-26.60818 83.47953,-54.67836 l -33.33333,-0.1462 c -8.33334,14.47369 -26.0234,25.731 -50.4386,28.94737"
     id="path6"
     style="stroke-width:1.46199" /><path
     fill="#e31e34"
     d="m 150.0731,90.643275 c 24.4152,3.216374 42.25146,14.473685 50.2924,29.385965 l 33.33333,-0.1462 C 225.2193,91.666667 194.22515,69.152047 149.9269,65.204678 c 0.1462,8.333334 0.1462,16.812866 0.1462,25.438597"
     id="path8"
     style="stroke-width:1.46199" /><path
     fill="#091f40"
     d="m 119.80994,90.789474 c 0,28.508776 0.1462,57.894736 0,85.380116 4.82456,0.73099 10.08772,1.02339 15.49708,1.02339 5.11696,0 10.08772,-0.2924 14.76608,-1.02339 V 57.163743 c 0,-8.918129 0.1462,-15.789474 0.1462,-21.929825 28.36257,1.461988 54.97076,10.526316 78.65497,26.31579 l -5.99415,-37.426901 c -24.70761,-8.77193 -56.43275,-13.157895 -88.1579,-13.157895 -31.43275,0 -63.157892,4.385965 -87.865495,13.157895 L 40.862573,61.842105 C 64.546784,46.052632 91.30117,36.988304 119.51754,35.526316 c 0.1462,5.994152 0.1462,13.011696 0.1462,21.929824 0,10.818714 0,21.783626 0.1462,33.040936 v 0.292398"
     id="path10"
     style="fill:#ffffff;stroke-width:1.46199"
     sodipodi:nodetypes="ccscscccscccscc" /><metadata
     id="metadata769"><rdf:RDF><cc:Work
         rdf:about=""><dc:title>Minnesota Twins TC logo</dc:title></cc:Work></rdf:RDF></metadata></svg>
