<svg xmlns="http://www.w3.org/2000/svg" xml:space="preserve" style="enable-background:new 0 0 512 512" viewBox="0 0 512 512"><title>Pittsburgh Pirates Cap Insignia</title><path d="M 512,0 V 512 H 0 V 0 Z" fill="#333333" /><path d="m 395.32872,180.64908 c 0,-22.80848 3.19318,-47.58679 17.52104,-72.19921 C 375.07063,99.077663 345.93798,63.475699 336.50358,32 320.84866,47.302414 305.40109,50.868832 281.18263,50.868832 L 118.78627,50.640747 96.703505,106.00314 a 36.078868,36.078868 0 0 1 22.082765,33.63214 V 392.8094 A 36.037396,36.037396 0 0 1 96.703505,426.42081 L 118.78627,480 h 62.01833 l 22.12421,-53.57919 A 36.037396,36.037396 0 0 1 180.8046,392.8094 v -99.8182 h 100.37803 c 24.3014,0 39.66603,5.99242 55.32095,21.29484 10.22233,-31.47571 40.99305,-54.94771 78.79292,-64.27845 -14.32789,-24.61243 -19.94704,-46.4671 -19.94704,-69.27557 M 309.65177,238.0435 H 181.09488 V 104.09553 h 128.55689 c 20.34103,0 33.17596,12.81422 33.17596,29.8169 v 76.53282 c 0,17.85281 -10.07718,27.59825 -33.17596,27.59825" fill="#fcb723" /></svg>