<?xml version="1.0" encoding="UTF-8" standalone="no"?>
<svg enable-background="new 0 0 33 33" viewBox="0 0 33 33" xmlns="http://www.w3.org/2000/svg">
  <path d="m0 0h33v33h-33z" fill="#7d001a"/>
  <g fill="#f6ab00">
    <path d="m16.9 21.7-.1-.5-.1-1.2c0-.3-.1-.6-.1-.8v-.3-.3h-.3-1.6c-2.1 0-4.3.1-6.6 0h-.4v.4c.1.5.6 1.1 1.2 1.3.1 0 .2.1.3.1.2.2.5.4.8.5 2.1.7 4.6 1 7.1 1.2-.1 0-.1-.2-.2-.4z"/>
    <path d="m16.4 17.7-.1-.5-.2-2.2v-.3h-.3c-3.1-.2-6.9-.5-11.2-1.2l-.5-.1v.5c0 .6.4 1.2 1 1.4.2.1.3.1.5.2.2.2.4.5.7.6 2.8 1.2 6.2 1.9 10.1 2.3z"/>
    <path d="m30.8 24.4.5-.2-3.9-2.7c-.1 0-.4.1-.4.1-1.1.2-2.5.5-3.8.7-.1 0-.2 0-.2 0 0-.1 0-.2-.1-.3v-.3c-.1-.5-.2-1.5-.3-2.9 1.6.1 3.1.2 4.7.2h.4c0-.1 0-.4 0-.4l-.2-1.6-.1-.9v-.3h-.3c-.1 0-.1 0-.2 0v-.4-.3h-.3c-1.6 0-3-.1-4.3-.1v-.4c2.5.2 4.8.3 6.3.3h.5c0-.2-.1-.5-.1-.5-.1-.5-.4-1-.7-1.4-.7-1.6-2.6-2.6-5.2-2.8-7.9-.7-14.9-2.7-20.7-6l-.6-.3v.7c0 .8.3 1.5.9 2 .4.3.9.7 1.3 1 2.9 2.6 7.7 4.8 12.7 5.9l.4 3.8c.2 2.1.4 3.9.5 4.4.3 2 .9 3.2 2 3.9l.6.3c.1.1.1.1.2.1 1.1.7 2.7.8 5 .2l2.2-.5c1.1-.3 2.2-.5 3.3-.8l.5-.1z"/>
  </g>
  <path d="m27.3 22c-1.1.2-2.7.5-4.1.7-1 .1-1.4-.4-1.5-1.2 0-.3-.2-1.6-.4-3.7 1.8.1 3.6.2 5.3.3-.1-.9-.2-1.8-.3-2.7-1.9 0-3.6-.1-5.3-.1-.1-.8-.1-1.5-.2-2.1 2.4.2 5.1.3 6.9.4-.5-1.9-2.6-2.9-5-3.1-7.2-.6-14.3-2.4-20.5-5.9 0 .7.2 1.2.8 1.7 3.2 2.8 8.6 5.2 14 6.3.4 3.1.9 8.2 1 9.1.6 4.2 2.8 4.8 6.7 3.8 2-.5 3.7-.9 5.7-1.4zm-11.5-7c-3.4-.2-7.1-.5-11.3-1.2 0 .4.3.9.8 1.1 2.8 1.2 6.4 2 10.7 2.3zm.4 4c-2.7 0-5.3.1-8.3 0 0 .4.5.8 1 1 2.3.7 5 1 7.6 1.3z" fill="#fff"/>
</svg>
