<svg xmlns="http://www.w3.org/2000/svg" xml:space="preserve" style="enable-background:new 0 0 512 512" viewBox="0 0 512 512"><title>San Diego Padres cap logo</title><path d="M 0,512 H 512 V 0 H 0 Z" fill="#2f241c" /><path d="m 360.01396,127.34469 -181.22256,0.014 c 0,0 10.83224,15.57827 10.83224,45.18267 v 22.91613 h -38.35813 c -9.2064,0 -16.66839,-7.46293 -16.66839,-16.6684 V 85.610656 c 0,-9.1672 7.50121,-16.668398 16.66839,-16.668398 l 124.3732,0.0019 c 9.56765,0.127865 15.85926,9.629198 14.5526,19.108132 -1.2656,9.1784 -6.05828,14.6748 -6.05828,14.6748 l 49.35095,9.3e-4 V 81.360256 C 333.48303,54.099457 311.38448,32 284.12278,32 H 136.95286 C 109.69207,32 87.593541,54.099457 87.593541,81.360256 V 183.94479 c 0,27.26079 22.098529,49.35933 49.359319,49.35933 h 135.79159 c 9.20459,0 16.66845,7.46293 16.66845,16.6684 v 88.87947 c 0,9.16065 -7.4956,16.65625 -16.65633,16.65625 H 236.62071 V 251.06268 H 189.62364 V 355.50734 H 148.5962 c -9.19989,0 -16.65627,-7.45733 -16.65627,-16.65628 v -8.87319 c 0,-29.52319 7.93519,-36.34587 7.93519,-36.34587 l -49.349999,-9.2e-4 v 50.36545 c 0,27.25614 22.096679,49.35281 49.352779,49.35281 h 49.74482 v 41.46707 c 0,29.60347 -10.83227,45.18267 -10.83227,45.18267 L 360.03638,480 c 35.55065,0 64.37008,-28.81944 64.37008,-64.37012 V 191.73255 c 0,-35.5628 -28.82968,-64.39067 -64.3925,-64.38786 z m 17.39544,289.18212 c 0,14.03921 -11.38102,25.42025 -25.41933,25.42025 H 236.62071 v -48.59864 h 50.44393 c 27.25614,0 49.35184,-22.09575 49.35184,-49.35281 v -99.17786 c 0,-27.2608 -22.09948,-49.36027 -49.36024,-49.36027 h -50.43553 v -30.06079 h 115.37405 c 14.03639,0 25.41559,11.37919 25.41559,25.41653 z" fill="#ffc427" /></svg>