<?xml version="1.0" encoding="UTF-8" standalone="no"?>
<svg height="151.18649" viewBox="0 0 151.18649 151.18649" width="151.18649" xmlns="http://www.w3.org/2000/svg">
  <path d="m0 0h151.18649v151.18649h-151.18649z" fill="#00214b"/>
  <path d="m70.733246 108.59865c4.85-6.02 4.73-13.179997 4.73-13.289997 0-.13 0-.2 0-.2v-49.57c.36-5.79 5.15-10.39 11.02-10.39.6 0 1.18.06 1.75.15h.01c.85.12 1.61.34 2.32.62.09.04.19.08.28.12 3.57 1.55 5.24 4.59 5.74 5.66.11.25.16.39.16.39h.02s1.75-1.77 1.75-1.77l3.030004-3.02s2.94-2.94 2.94-2.94l1.59-1.59-3.43-1.37-1.08-.43-3.200004-1.27-.14-.06-6.86-2.74.06.08c-4.69-2.03-8.66-1.77-8.66-1.77-21.43.7-21.77 21.06-21.77 21.06v48.48c0 9.399997-4.99 14.479997-11 17.199997 5.66-4.53 6.03-12.989997 6.03-12.989997v-53.8c0-.18 0-.36.01-.54.66-9.41 6.52-15.23 6.52-15.23l-6.59 2.65-23.51 9.38 3.99 2.48c.59-.17 1.22-.28 1.86-.28 3.49 0 6.33 2.82 6.34 6.32v53.329997c0 2.57-.21 4.57-.56 6.15-.6 1.9-2.68 5.23-9.92 5.54-2.04 0-3.6-.09-4.39-.16-.18-.02-.36-.03-.56-.05l6.2 9.55.16-.09c5.57-.25 10.35-1 14.48-2.12h.03c.47-.13.93-.26 1.38-.4 1.82-.5 5.24-1.33 9.21-1.83 2.17-.2 4.8-.38 7.81-.39.64.03 1.18.02 1.62 0 8.99.09 20.97 1.49 33.920004 6.52l17.95-28.829997-11.22-10.41c0 13.259997-9.43 32.739997-40.020004 21.859997" fill="#fff"/>
</svg>
