<svg xmlns="http://www.w3.org/2000/svg" xml:space="preserve" style="enable-background:new 0 0 512 512" viewBox="0 0 512 512"><title>Tampa Bay Rays cap logo</title><path d="M 512,512 H 0 V 0 h 512 z" fill="#092c5c" /><g><path d="M 146.69226,73.559091 H 78.345636 l -0.321511,0.150239 c -24.323657,9.585234 -32.628856,43.13055 -34.281483,51.11123 0,0.0301 -0.03005,0.18029 -0.03005,0.24038 l -10.606855,-0.58893 -1.105757,8.89413 19.485968,1.02162 0.790256,-3.84611 c 1.307078,-6.42421 9.023341,-38.701505 31.189569,-47.79696 h 63.220477 v -9.185599 z m 173.99152,98.214089 v 265.06025 h 0.12019 c 2.03423,0 13.52149,0.0301 27.91436,0.0301 -6.02758,0 -15.00585,0 -18.90905,-0.0301 V 180.63126 c 4.02039,-0.12019 11.58942,-0.29447 11.58942,-0.29447 0.52583,-0.0301 26.42099,-1.20191 43.71948,15.17412 10.2553,9.73547 15.57976,23.79782 15.90428,41.84149 0.03,-0.96753 0.0451,-1.96512 0.0451,-2.93566 0,-66.90133 -64.20604,-63.26254 -64.20604,-63.26254 -3.38939,0 -10.70902,0 -14.56715,0.4417 l -1.61357,0.18028 z m 18.83994,126.82256 v 17.33755 l 4.20668,0.33052 c 7.72228,0.64303 74.71074,7.4819 76.02984,58.77341 0.0451,-1.05768 0.0751,-2.05526 0.0751,-3.0829 0,-57.39722 -73.9325,-64.32022 -80.29962,-64.81901 v -8.53957 h -0.018 z m -87.0213,31.69136 c 0,0 -39.17626,-7.13033 -45.49831,-8.27515 V 82.657551 h 63.31062 c 20.7029,8.593658 29.8254,45.774749 32.12706,57.012609 l 0.78124,3.84611 19.47996,-1.02763 -11.04255,-93.92928 h -8.15797 l 10.0059,85.0051 -1.04265,0.0901 -1.99518,0.12019 -7.63212,0.3786 C 301.24588,126.49722 292.11738,83.420764 267.58639,73.649235 L 267.2769,73.529044 H 198.33533 V 321.24874 c 0,0 42.71288,7.77636 45.54338,8.27515 v 13.64168 H 101.50044 l -0.0301,9.15855 h 151.03204 z m 17.04609,-153.26157 c 0,0 -44.62092,-7.33165 -47.4454,-7.80641 v -13.67173 h -0.03 v 22.15421 c 0,0 40.97612,6.74572 47.4454,7.77035 l 0.03,-8.44943 z m 190.10312,144.60481 c -14.75945,-14.44095 -34.36261,-20.34233 -48.75548,-22.77619 20.27322,-10.03595 50.24886,-31.74846 50.24886,-72.56533 0,-48.26871 -32.5297,-70.74744 -102.36669,-70.74744 h -3.81607 c 64.41037,0.15024 97.0843,19.39883 97.0843,66.17117 0,58.51199 -64.99329,75.32371 -64.99329,75.32371 v 0.0901 c 0,0 83.83323,-1.99517 83.83323,72.68552 0,56.89542 -36.45995,84.47625 -98.93223,84.47625 H 222.10311 v -12.94156 c -0.03,0.03 -0.0601,0.03 -0.0601,0.03 l 0.0301,3.81607 v 18.248 h 154.42141 c 66.73607,0 103.5055,-31.63127 103.5055,-89.05553 0,-21.8327 -6.83586,-39.55787 -20.34834,-52.76386" fill="#8fbce6" /><path d="m 222.10311,454.32423 h 149.85716 c 62.46928,0 98.93223,-27.61389 98.93223,-84.51231 0,-74.67769 -83.83323,-72.68552 -83.83323,-72.68552 v -0.0901 c 0,0 64.99329,-16.80872 64.99329,-75.32071 0,-46.77233 -32.67393,-66.02393 -97.0843,-66.14111 -0.26141,-0.0301 -0.48076,-0.0301 -0.70311,-0.0301 H 222.10611 v 13.67473 c 2.8305,0.47175 47.4454,7.80641 47.4454,7.80641 v 255.34581 h -0.03 c -1.20191,0.18029 -44.65698,7.77636 -47.41536,8.27515 v 13.67474 z M 401.06753,234.41974 c 0,0.97054 -0.012,1.96813 -0.0421,2.93567 -2.07329,54.69592 -61.4777,60.79862 -61.4777,60.79862 v 8.98128 c 6.3551,0.49879 80.2876,7.42179 80.2876,64.81901 0,1.02764 -0.03,2.02522 -0.0751,3.0799 -1.20191,31.07538 -21.39401,61.82926 -69.56055,61.82926 h -1.47835 c -14.39288,0 -25.88314,-0.0301 -27.92038,-0.0301 h -0.12019 v -265.0632 l 1.61657,-0.18029 c 3.85813,-0.43569 11.17777,-0.43569 14.56715,-0.43569 0,0 64.20604,-3.63578 64.20604,63.26554" fill="#f9f9f9" /><path d="m 101.50044,329.52389 v 13.64168 H 243.8727 v -13.64168 c -2.82449,-0.49879 -45.52234,-8.27515 -45.52234,-8.27515 V 73.505005 h 68.91151 l 0.015,0.03005 0.33052,0.114182 c 24.51296,9.771529 33.63846,52.875033 35.23701,60.504153 l 7.64414,-0.3816 1.98316,-0.12019 1.04265,-0.0901 -10.01188,-84.972052 V 48.55936 L 42.156121,48.679551 33.099728,124.469 l 10.606857,0.58593 c 0,-0.0601 0.03005,-0.18028 0.03005,-0.24038 1.652626,-7.97768 9.96083,-41.519986 34.302516,-51.111229 l 0.306487,-0.150239 H 146.69226 V 321.24273 c 0,0 -41.91662,7.77636 -45.19183,8.27515" fill="#f9f9f9" /></g></svg>