<?xml version="1.0" encoding="UTF-8"?>
<svg xmlns="http://www.w3.org/2000/svg" width="60.017481949169451" height="80.70162804508891" viewBox="0 0 60.017481949169451 80.70162804508891">
  <defs>
    <style>
      .cls-1 {
        fill: #fff200;
      }

      .cls-1, .cls-2, .cls-3, .cls-4, .cls-5, .cls-6, .cls-7, .cls-8 {
        stroke-width: 0px;
      }

      .cls-2 {
        fill: #000;
      }

      .cls-3 {
        fill: #231f20;
      }

      .cls-4 {
        fill: #00ac5b;
      }

      .cls-5 {
        fill: #ed1a3b;
      }

      .cls-9 {
        fill: none;
        stroke: #fff;
        stroke-linecap: round;
        stroke-linejoin: round;
        stroke-width: .694px;
      }

      .cls-6 {
        fill: #fff;
      }

      .cls-7 {
        fill: #21409a;
      }

      .cls-8 {
        fill: #1d174f;
      }
    </style>
  </defs>
  <path class="cls-4" d="M31.077782671482055,72.170263417864589c15.227499615320994,0,27.572199303467642-12.344699688146648,27.572199303467642-27.572699303455011,0-15.228099615305837-12.344699688146648-27.573299303439853-27.572199303467642-27.573299303439853-15.228499615295732,0-27.572299303465115,12.345199688134016-27.572299303465115,27.573299303439853,0,15.227999615308363,12.343799688169383,27.572699303455011,27.572299303465115,27.572699303455011"/>
  <path class="cls-7" d="M12.820883132690142,72.091163419862824s-5.741199854965089-5.368599864377757-5.865199851832585-5.505810681488583c-.122999996892759-.136789175967351-.33109999163571-.395089169442144-.324199991810019-.627999999999702.095699997582415-.479000000000269.827099979105697-.920889140295003,1.894499952140904-1.292000000000371,1.068421958460021-.370089121570345,2.20699994424649-.449189119572111,3.112299921376689-.52678911761177.464899988255638-.020999999469495,1.812499954212399-.207999994745478,1.757799955594237.654789117612381-.055599998595426.863310844037187-1.784199954927317,1.21481083515755-2.66109993277496,1.325210832368612-.875999977870379.108899997248955-1.687499957370164-.251999993633945-1.915999951597769-.327210832369019.370099990650488,1.220210809809942,1.760699955520977,1.325210807157418,2.101499946911645,1.373999999999796.095699997582415.123110802815063-.058599998519639.225110800238326-.058599998519639.225110800238326l-.275299993045337.21199999464443c.314399992057588.396889205117986,1.667899957865302.329999991663499,1.667899957865302.329999991663499-.096699997557153.260799993411638-.136699996546668.231999994139187-.260699993414164.299799992426415.232399994129082.246089221027432.944299976144976.232999994113925,1.481399962576688.104999997347477,1.205099969556613-.217799994497909,2.870099927495176-1.198699969718291,3.343799915528507-2.804699929147318.476499987962598-1.608399959368398-.452199988576467-3.03999992320314-2.351577832041585-3.625899908402062-1.90042206054386-.583999985246919-6.251921950615724.396899989973463-6.251921950615724.396899989973463,0,0-4.294999891499174.896999977339874-5.993199848599033,1.842789071256448-.371099990625225.206110876983985-1.939499951004109,1.370110847578871-2.10349994686112,2.703110813904459-.165099995829223,1.332999966325588.879899977771856,2.158699945466651,1.354499965782452,2.59669993440184,0,0,5.652299857210892,4.759299879769969,6.108399845688837,5.399399863599683.456999988455209.638699983865081-.038099999037513,1.158699970728776-.038099999037513,1.158699970728776,0,0-.998099974785873.97899997526838-1.278299967707426,1.18019997018564-.280299992919026.200699994929892-.779299980313226.711889447179601-1.728499956334417.711889447179601-.950199975995929,0-1.606499959416396-1.047789438694053-1.368199965436361-1.432089428985819.238299993980036-.383799990304396,1.240199968669913-.80079997977009,1.54982182312051-.873999977920903.310478129884359-.072799998160917.732378119226269-.030799999221927,1.070278110690197-.020999999469495l-1.782199954977841-1.616699959158723c-1.109399971974199.334899991539714-2.855499927864003,1.267999967967626-3.622078155711279,2.106899946775229-.767621733395572.840799978759605-.14842174903788,1.64699995839328-.14842174903788,1.64699995839328,0,0,2.055599948071176,1.925699951352726,2.693299931961519,2.426699938696402.659199983347207.533189521669556,1.192399969877442.802299979732197,2.436599938446307.308099992216739,1.316399966744939-.524910470547184,4.982399874133989-2.897910470546776,5.895521878628642-3.556099910165358.913000000000466-.656810560381928,1.859277925468632-1.590810560381215,2.133777918534179-2.759810560381993.273399993093335-1.168889340370697-.574299985491962-2.03418931851138-.574299985491962-2.03418931851138"/>
  <path class="cls-7" d="M43.119782367275548,73.134163393514427c-.29199999262346.877399977835012-1.204099969581875,2.199189344860315-1.682699957491423,2.519999936339445-.47549998798786.319399991931277-.640599983817083.478999987899442-.968677210135866.314999992042431-.329122757078949-.164599995841854-.510722752491347-.62599998418591-.308622757596822-1.227599968988216.199199994967785-.603999984741677.793899979944399-1.515099961725355,1.249999968422344-1.99021061453368.456999988455209-.475089323187603.923799976662849-.895999999999731,1.437499963685696-.666000000000167,0,0,.565399985716795.170910677317806.272499993116071,1.048810655140187M26.502582787061328,72.592163407206499s-.891599977476289,1.989299949746055-1.275399967780686,2.829099928530923c-.382777619632179.841299978746974-1.320299966646417,1.507299961922399-1.885777619630971,1.232899968854326-.56732231839851-.273899993080704-.287122325476957-1.284699967545748.414077656809241-2.27589994250593.740199981300975-1.047799973530346,2.328099941187247-1.824699953904201,2.328099941187247-1.824699953904201.494199987515458-.270999993153964.41899998941517.038599999024882.41899998941517.038599999024882M53.024082117071885,70.83535273837424l-.291099992646195.087910710992219.445423075223516-1.130910710991884h-.284223079295771s.407223079295363-.766089241085865.588799985125661-1.423789224470966c.183599995361874-.657299983395205-.069299998249335-1.375999965239316-.183576905830705-1.526399961439893-.803723069227999,1.80909995429829-3.544922999979462,5.873999851610279-3.544922999979462,5.873999851610279,0,0,.370099990650488-2.018499949008401.408199989688001-2.197699944481428s.031299999209295-.551299986072991-.095699997582415-.605999984691152c-.127899996768974-.054199998630793-.388576992125309.189999995200196-.388576992125309.189999995200196l-2.15342294365837,2.449699938115373s.749999981053406-1.753899955692759.895499977377767-2.082999947378994c.145499996324361-.326699991746864.118199997014017-.423899989291385.115299997087277-.533699986517604,0,0-.859377030807082-1.379899965140794-1.19237703080762-1.766110735945404l-2.209999999999127,4.747999999999593.054677115376762-.825189318537014c-.017599999555387-1.096699972295028-.590799985075137-1.52981068146255-.955999975849409-1.656699958148238-.364299990797008-.127999996766448-.913099976933154.001889276685688-.913099976933154.001889276685688-.273499993090809-.363789267543325-.853499978438776-.643000000000029-1.713899956703244-.518000000000029-1.954099950635282.403310726163909-3.188499919451715,2.950110661826329-3.532199910769123,3.570310646158759-.345699991266883.620599984322325-1.259799968174775,1.150799970928347-1.259799968174775,1.150799970928347l3.892599901664653-8.699199780239724h-1.086899972542597c-.095699997582415,0-.186499995288614-.042910836848023-.248099993732467-.115699997077172-.049799998741946-.060099998481746-.076099998077552-.133299996632559-.076099998077552-.208999994720216,0-.017999999545282.000899999977264-.038099999037513.004822735740163-.056099998582795,0,0,.021477263595443-.125999996816972.049877262877999-.28711084646784l-1.48539996247564.074210851846146s-3.314477300402359,7.313899815235345-3.763699904920941,8.135699794474931c-.449199988652254.823299979201693-1.529299961366632,1.520999961576308-1.529299961366632,1.520999961576308l4.065522565884748-9.124999769483111c-.075222666688205.034199999136035-.153422664712707.066899998309964-.235422662641213.096199997569784-.67089998305164.238799993967405-1.831999953719787.16988916401624-2.215799944024184.052699998668686-.13377739333373-.039999998989515-.339899991413404-.103999997372739-.528299986654019-.238699993969931-.604477406679507,1.332999966325588-3.188477406680249,7.036099822253163-3.580099909559067,7.842699801876734-.444299988776038.916999976834632-.520499986851064.883299977685965-1.02437749712044,1.394099964782072-.503922464271454.510199987111264-.966822452577617.623999984236434-.966822452577617.623999984236434,0,0,2.038099948513263-4.496099886418961,2.257822452576875-5.071799871875555.218677484861473-.575199985469226-.399422499524007-.619110719701894-.399422499524007-.619110719701894l-2.261699942864652.116210732406216-.16209999590501.361789267593849c-.534199986504973-.245089270541939-1.356499965731928-.340789268124354-2.464899937731388.024910722637287-1.371099965363101.49319998754072-2.261699942864652,1.634299958714109-2.747099930602417,2.037089277362611l1.691399957271642-3.30808924525445s.530299986603495-1.245099968546128.599699984850304-1.51999996160157c.085899997829983-.312999992092955-.040099998986989-.613799984494108-.114299997112539-.844699978661083-.072299998173548-.23339999410382-.237299994005298-.226099994288234-.33399999156245-.082999997903244l-1.686499957395426,2.264599942791392-3.123077689422644,3.983399899370852s.402377758153307-2.356399940472329.218777762791433-2.512210658742333c-.266599993265118-.226999999999862-.564499985739531.129910718924293-.564499985739531.129910718924293l-2.093699947108689,2.417999938916182,1.000999974712613-2.992699924398039-2.433577804657034-1.410210733442-1.132822105248124,3.741210674555987s-1.612299959269876,5.512699860737484-1.738299956086848,6.063999846810475c-.124999996842234.549789478633102.149399996225839,1.099599972221768.470699988109118,1.199699969693029,1.442422073225316.257299993500055,2.874999927371391-2.401799939325429,2.874999927371391-2.401799939325429,0,0-.371099990625225,2.120099946441769.559499985865841,2.266099942753499.93069997648854.14599999631173,2.502999936768902-2.052299948154541,2.502999936768902-2.052299948154541l1.540999961071066-2.130799946171464c-.438499988922558,1.443799963526544-.153299996127316,3.400799914088566.943399976167711,3.802699903935718,1.096599972297554.402299989837047,2.3133999415586-.45649998846784,3.159099920194421-.996599974823766.092799997655675.619599984347587.390699990130088.920899976736109.822299979226955,1.031789470725926,1.151399970913189.219210497671156,2.169899945183715-.888189474353567,2.776399929862237-1.396999999999935,0,0-.177799995508394,1.286110506010118,1.079999972716905,1.246110507020603,1.295899967262812-.040999998964253,2.649499933068-1.406299964473874,3.364299915010633-2.042999948389479-.547799986161408,1.498099962154811.238299993980036,1.771999955235515.645499983693298,1.808099954323552,1.699199957074597.14599999631173,3.778299904552114-1.864210512954742,4.231499893103319-2.264099942804023.227499994252867,1.103999972110614.584899985224183,1.716799956629984,1.644499958456436,2.045889429849922,2.247099943233479.455999999999221,4.310499891107611-2.39408942105365,5.022399873123504-3.453189394298533,0,0-1.204099969581875,2.940499925716722-.187477139406838,3.309099916405103.962877119818586.348199991203728,1.939477095147595-1.086910522107246,2.800777073389327-2.304699941778381,0,0-.494099987517984,1.826699953853677.23049999417708,1.972699950165406.983399975157226.197199995018309,2.695299931910995-2.040999948440003,3.667999907338526-3.341799915579031.968723025094732-1.388199964931118,2.275399942518561-3.891110614915306,2.275399942518561-3.891110614915306"/>
  <path class="cls-7" d="M59.043581965006524,69.237163491960928c-.393599990056828-.715810753586084-2.025399948834092-.939899976256129-3.815399903614889.027399999307818-1.79009995477827.967699975553842-2.095699947058165,2.257789247105393-2.095699947058165,2.257789247105393-.195399995063781,1.308110662812396.844699978661083,1.865210648738866,1.56249996052793,2.35691063631748.718699981844111.491199987591244.274423124787063.918999976784107-.038099999037513,1.084999972590595-2.19139994464058,1.388199964931118-5.259799867126276,2.359299940399069-5.482476876175497,2.420899938842922-.218722979800077.062499998421117-.130822982020618.164999995831749-.130822982020618.164999995831749,3.050822982020691.237299994005298,6.108399845688837-.669899983076903,6.108399845688837-.669899983076903,0,0,1.846699953348434-.620099984334956,2.613299933982489-1.606910560505639.766599980634055-.985889373994723-.000999999974738-1.990789348608814-.000999999974738-1.990789348608814,0,0-1.502876797676436-1.167899970496364-1.99709994954901-1.587399959898903-.492199987565982-.421810691492283-.267599993239855-.772899980474904-.050776848125679-1.031699973937066.419999999998254-.437999988935189,1.240276818076381-.727999981609173,1.569376809762616-.727999981609173.327099991736759,0,.523399986777804.209889264054254.341799991365406.558099985901208-.183599995361874.346699991241621-.76169998075784.308599992204108-.909176801129433.38178927815261-.145523172226603.073210710353123-.227523170155109.109910709426003.210000000000946.513210699237789.439376807691588.400899989872414.653276802288019.523899986765173,1.274376786597713.423789300763019.986299975083966-.411089301083848,1.314399966795463-1.708000000000538.840799978759605-2.575189246414084"/>
  <polygon class="cls-5" points="38.625582480808589 62.185463670101853 40.340482437486571 62.185463670101853 40.87458242399407 63.494463637033732 41.927405199649002 62.181563670200376 43.419582359701963 62.184463670127116 41.266182414101422 64.58826360940202 40.995682420934827 65.616563583424977 39.619782455692985 65.616563583424977 39.795482451254429 64.603352738374269 38.625582480808589 62.185463670101853"/>
  <path class="cls-5" d="M44.357982335995985,65.003263598918238c-.167899995758489.09529999759252-.248999993709731.218299994485278-.488199987667031.218299994485278-.242199993881513,0-.368199990698486-.079099998001766-.351599991117837-.193399995114305,0,0,.076222842437346-.317810859914971.458999988404685-.364699990786903.381799990354921-.046899998815206.506799987197155.032699999173929.506799987197155.032699999173929,0,0,.041999998938991.212399994634325-.125999996816972.307099992242001M45.97818229506629,63.71035273837424c-.089899997728935-.51268909384271-1.011777095416619-.607889091437755-2.127999946242198-.518089093706294-1.115199971827678.091299997693568-1.289999967411859.62599998418591-1.289999967411859.62599998418591v.114199997115065h1.17279997037258c.089899997728935-.181110887594514.419999989389908-.292899992600724.748099981101404-.251899993636471.327099991736759.040999998964253.172799995634705.42578910604243.037099999062775.513699987022846-.137699996521405.088299997769354-.77729998036375-.020999999469495-1.14059997118602.033199999161297-.362299990847532.055099998608057-.671899983026378.209889119858417-1.006899974563567.380799990380183-.335899991514452.170899995682703-.483399987788289.969299975513422.33109999163571,1.090299972456705.813499979449261.120699996950862,1.214799969311571-.048299998779839,1.793899954682274-.327099991736759v.299799992426415h1.183599970099749s.38969999015535-1.44869996340276.298899992449151-1.960910843668898"/>
  <polygon class="cls-5" points="46.916582271360312 62.204463669621873 48.286782236746149 62.202563669669871 47.903882246419016 64.281663617147387 48.945882220095882 63.297263642015423 50.492782181017901 63.297263642015423 49.416582208205 64.295263616803823 50.288682186173901 65.629263583104148 48.529882230604926 65.629263583104148 47.863882247429501 64.472563612324848 47.550405199648594 65.656663582411966 46.18808228976377 65.642463582770688 46.916582271360312 62.204463669621873"/>
  <polygon class="cls-5" points="26.11978279673167 62.178063670288793 27.488882762145295 62.178063670288793 27.107082771790374 64.281663617147387 28.148082745492502 63.298263641990161 29.694982706414521 63.298263641990161 28.61878273360162 64.29626361677856 29.490882711570521 65.636063582932366 27.73298275597881 65.636063582932366 27.065982772828647 64.473563612299586 26.754482780697799 65.636063582932366 25.392182815112392 65.636063582932366 26.11978279673167 62.178063670288793"/>
  <path class="cls-5" d="M50.993782168361577,63.25916364297791h1.307623031287221l-.25,1.375999965239316s-.122999999999593.335399991527083.268576935210149.396499989983568c.392499990084616.058599998519639.571199985570274-.388199990193243.571199985570274-.388199990193243l.335999991511926-1.370110869633208h1.362299965585407l-.456076877877422,2.416910843188816h-1.382823075668057v-.373999990551965s-.33689999148919.430199989132234-1.271499967879208.430199989132234c-.93359997641528,0-.868099978069949-.990199974985444-.868099978069949-.990199974985444l.382799990329659-1.497099962180073Z"/>
  <polygon class="cls-5" points="55.594405199648463 62.211263669450091 56.9156820187618 62.211263669450091 56.188082037142522 65.647352738374138 54.782782072643386 65.647352738374138 55.594405199648463 62.211263669450091"/>
  <path class="cls-5" d="M57.817981995967784,62.593163659802485l1.471699962821731-.40869998967537-.193399995114305.861799978229101s-.066399998322595.202199994891998.144599996347097.224089090018424c.21279999462422.023000000000138.429599989147391,0,.429599989147391,0l-.13569999657193.629910888407721h-.654299983470992l-.175799995558918.855999978375621s.027399999307818.306089133217029.327199991734233.315899992019695c.298799992451677.012189141197268.298799992451677,0,.298799992451677,0l-.122999996892759.55709998592647s-.234399994078558.130899996693188-.870199978016899.114299997112539c-.635699983940867-.017099999568018-1.152299970890454-.100099997471261-1.073199972888688-.537099986431713.08012318969304-.436110855410334.200199994942523-1.279299967682164.200199994942523-1.279299967682164h-.368199990698486l.1221231854488-.638699983865081.276376804484244-.024899999370973s.181623195516295-.059099998507008.214799994573696-.179210904491811c.03219999918656-.122089087896711.108399997261586-.491189078572461.108399997261586-.491189078572461"/>
  <path class="cls-5" d="M23.77208285603956,64.512563611314363c-.181599995412398.664599983210792-.451199988601729.703599982225569-.680677656389889.685099982692918-.232422320543265-.022499999431602-.341822317779588-.353099991079944-.232422320543265-.755399980916991.111299997188326-.401910874716123.290099992671458-.593699985001876.603499984754308-.609910874715752,0,0,.49029998761398.017110889691139.309599992178846.680210872939824M24.898082827594408,63.530163636131874c-.271499993141333-.240699993919407-.982399975182489-.271999993128702-1.374999965264578-.283699992833135-.371099990625225-.00289999992674-.802799979719566.071799998186179-1.045899973578344.137699996521405-.310599992153584.091299997693568-.964899975624576.391099990119983-1.076199972812901,1.236299968768435-.109399997236324.843799978683819.39259999008209.997099974811135.724599981695064,1.096699972295028.332099991610448.100099997471261,1.418999964153045.164099995854485,2.012699949154921-.047810842508625.591799985049875-.21100000000024.927699976564327-.573789141788438,1.070299972961948-1.168000000000575.136699996546668-.568889112405486-.155177620101313-.847189105375037-.31049999215611-.971189102242533"/>
  <path class="cls-5" d="M35.926405199648798,64.512563611314363c-.180722646087816.664599983210792-.449222639304935.703599982225569-.680722633456753.685099982692918-.231399994154344-.022499999431602-.34269999134267-.353099991079944-.231399994154344-.755399980916991.110299997213588-.401910874716123.289999992673984-.593699985001876.603499984754308-.609910874715752,0,0,.489299987639242.017110889691139.30862264285679.680210872939824M37.052405199649002,63.530163636131874c-.271522672239371-.240699993919407-.982422654280526-.271999993128702-1.373999999999796-.283699992833135-.372122634988045-.00289999992674-.802822624107648.071799998186179-1.045000000000073.137699996521405-.312522610094675.091299997693568-.965822593590929.391099990119983-1.076122590804516,1.236299968768435-.112299997163063.843799978683819.390599990132614.997099974811135.722599981745589,1.096699972295028.33109999163571.100099997471261,1.419899964130309.164099995854485,2.012699949154921-.047810842508625.593822659902798-.21100000000024.928699976539065-.573789141788438,1.070299972961948-1.168000000000575.137699996521405-.568889112405486-.155199996079318-.847189105375037-.310477313058072-.971189102242533"/>
  <polygon class="cls-5" points="20.312082943446512 65.635163582955101 18.869782979882075 65.635163582955101 19.463482964883951 63.103352738374269 17.851183005614075 63.103352738374269 18.128482998608888 62.177163670311529 22.796482880685289 62.177163670311529 22.519182887690476 63.103352738374269 20.9068829284206 63.103352738374269 20.312082943446512 65.635163582955101"/>
  <path class="cls-5" d="M33.792582602900438,63.291352738374371l-1.87299995268404,2.565910838970012s-.261799993386376.331089161029922-.591799985049875.520089161030228c-.36329999082227.207000000000335-.686599982655025.211910820477897-.744199981199927.211910820477897-.23339999410382,0-.588799985125661-.042999998913729-.77729998036375-.155799996064161l.123999996867497-.601999984792201.420899989367172.041999998938991c.115222509812156.022889161439707.330099991660973-.021999999444233.442399988824036-.209999994694954.058599998519639-.099110843865674.048822520986505-.326199991759495.000999999974738-.480999987848918l-.794999979916611-1.891110856016894h1.499999962106813l.380899990377657,1.083000000000538.747099981126667-1.083000000000538h1.164999970569625Z"/>
  <polygon class="cls-6" points="38.625582480808589 62.185463670101853 40.340482437486571 62.185463670101853 40.87458242399407 63.494463637033732 41.927405199649002 62.181563670200376 43.419582359701963 62.184463670127116 41.266182414101422 64.58826360940202 40.995682420934827 65.616563583424977 39.619782455692985 65.616563583424977 39.795482451254429 64.603352738374269 38.625582480808589 62.185463670101853"/>
  <polygon class="cls-9" points="38.625582480808589 62.185463670101853 40.340482437486571 62.185463670101853 40.87458242399407 63.494463637033732 41.927405199649002 62.181563670200376 43.419582359701963 62.184463670127116 41.266182414101422 64.58826360940202 40.995682420934827 65.616563583424977 39.619782455692985 65.616563583424977 39.795482451254429 64.603352738374269 38.625582480808589 62.185463670101853"/>
  <path class="cls-6" d="M44.357982335995985,65.003263598918238c-.167899995758489.09529999759252-.248999993709731.218299994485278-.488199987667031.218299994485278-.242199993881513,0-.368199990698486-.079099998001766-.351599991117837-.193399995114305,0,0,.076222842437346-.317810859914971.458999988404685-.364699990786903.381799990354921-.046899998815206.506799987197155.032699999173929.506799987197155.032699999173929,0,0,.041999998938991.212399994634325-.125999996816972.307099992242001M45.97818229506629,63.71035273837424c-.089899997728935-.51268909384271-1.011777095416619-.607889091437755-2.127999946242198-.518089093706294-1.115199971827678.091299997693568-1.289999967411859.62599998418591-1.289999967411859.62599998418591v.114199997115065h1.17279997037258c.089899997728935-.181110887594514.419999989389908-.292899992600724.748099981101404-.251899993636471.327099991736759.040999998964253.172799995634705.42578910604243.037099999062775.513699987022846-.137699996521405.088299997769354-.77729998036375-.020999999469495-1.14059997118602.033199999161297-.362299990847532.055099998608057-.671899983026378.209889119858417-1.006899974563567.380799990380183-.335899991514452.170899995682703-.483399987788289.969299975513422.33109999163571,1.090299972456705.813499979449261.120699996950862,1.214799969311571-.048299998779839,1.793899954682274-.327099991736759v.299799992426415h1.183599970099749s.38969999015535-1.44869996340276.298899992449151-1.960910843668898"/>
  <path class="cls-9" d="M44.357982335995985,65.003263598918238c-.167899995758489.09529999759252-.248999993709731.218299994485278-.488199987667031.218299994485278-.242199993881513,0-.368199990698486-.079099998001766-.351599991117837-.193399995114305,0,0,.076222842437346-.317810859914971.458999988404685-.364699990786903.381799990354921-.046899998815206.506799987197155.032699999173929.506799987197155.032699999173929,0,0,.041999998938991.212399994634325-.125999996816972.307099992242001ZM45.97818229506629,63.71035273837424c-.089899997728935-.51268909384271-1.011777095416619-.607889091437755-2.127999946242198-.518089093706294-1.115199971827678.091299997693568-1.289999967411859.62599998418591-1.289999967411859.62599998418591v.114199997115065h1.17279997037258c.089899997728935-.181110887594514.419999989389908-.292899992600724.748099981101404-.251899993636471.327099991736759.040999998964253.172799995634705.42578910604243.037099999062775.513699987022846-.137699996521405.088299997769354-.77729998036375-.020999999469495-1.14059997118602.033199999161297-.362299990847532.055099998608057-.671899983026378.209889119858417-1.006899974563567.380799990380183-.335899991514452.170899995682703-.483399987788289.969299975513422.33109999163571,1.090299972456705.813499979449261.120699996950862,1.214799969311571-.048299998779839,1.793899954682274-.327099991736759v.299799992426415h1.183599970099749s.38969999015535-1.44869996340276.298899992449151-1.960910843668898Z"/>
  <polygon class="cls-6" points="46.916582271360312 62.204463669621873 48.286782236746149 62.202563669669871 47.903882246419016 64.281663617147387 48.945882220095882 63.297263642015423 50.492782181017901 63.297263642015423 49.416582208205 64.295263616803823 50.288682186173901 65.629263583104148 48.529882230604926 65.629263583104148 47.863882247429501 64.472563612324848 47.550405199648594 65.656663582411966 46.18808228976377 65.642463582770688 46.916582271360312 62.204463669621873"/>
  <polygon class="cls-9" points="46.916582271360312 62.204463669621873 48.286782236746149 62.202563669669871 47.903882246419016 64.281663617147387 48.945882220095882 63.297263642015423 50.492782181017901 63.297263642015423 49.416582208205 64.295263616803823 50.288682186173901 65.629263583104148 48.529882230604926 65.629263583104148 47.863882247429501 64.472563612324848 47.550405199648594 65.656663582411966 46.18808228976377 65.642463582770688 46.916582271360312 62.204463669621873"/>
  <polygon class="cls-6" points="26.11978279673167 62.178063670288793 27.488882762145295 62.178063670288793 27.107082771790374 64.281663617147387 28.148082745492502 63.298263641990161 29.694982706414521 63.298263641990161 28.61878273360162 64.29626361677856 29.490882711570521 65.636063582932366 27.73298275597881 65.636063582932366 27.065982772828647 64.473563612299586 26.754482780697799 65.636063582932366 25.392182815112392 65.636063582932366 26.11978279673167 62.178063670288793"/>
  <polygon class="cls-9" points="26.11978279673167 62.178063670288793 27.488882762145295 62.178063670288793 27.107082771790374 64.281663617147387 28.148082745492502 63.298263641990161 29.694982706414521 63.298263641990161 28.61878273360162 64.29626361677856 29.490882711570521 65.636063582932366 27.73298275597881 65.636063582932366 27.065982772828647 64.473563612299586 26.754482780697799 65.636063582932366 25.392182815112392 65.636063582932366 26.11978279673167 62.178063670288793"/>
  <path class="cls-6" d="M50.993782168361577,63.25916364297791h1.307623031287221l-.25,1.375999965239316s-.122999999999593.335399991527083.268576935210149.396499989983568c.392499990084616.058599998519639.571199985570274-.388199990193243.571199985570274-.388199990193243l.335999991511926-1.370110869633208h1.362299965585407l-.456076877877422,2.416910843188816h-1.382823075668057v-.373999990551965s-.33689999148919.430199989132234-1.271499967879208.430199989132234c-.93359997641528,0-.868099978069949-.990199974985444-.868099978069949-.990199974985444l.382799990329659-1.497099962180073Z"/>
  <path class="cls-9" d="M50.993782168361577,63.25916364297791h1.307623031287221l-.25,1.375999965239316s-.122999999999593.335399991527083.268576935210149.396499989983568c.392499990084616.058599998519639.571199985570274-.388199990193243.571199985570274-.388199990193243l.335999991511926-1.370110869633208h1.362299965585407l-.456076877877422,2.416910843188816h-1.382823075668057v-.373999990551965s-.33689999148919.430199989132234-1.271499967879208.430199989132234c-.93359997641528,0-.868099978069949-.990199974985444-.868099978069949-.990199974985444l.382799990329659-1.497099962180073Z"/>
  <polygon class="cls-6" points="55.594405199648463 62.211263669450091 56.9156820187618 62.211263669450091 56.188082037142522 65.647352738374138 54.782782072643386 65.647352738374138 55.594405199648463 62.211263669450091"/>
  <polygon class="cls-9" points="55.594405199648463 62.211263669450091 56.9156820187618 62.211263669450091 56.188082037142522 65.647352738374138 54.782782072643386 65.647352738374138 55.594405199648463 62.211263669450091"/>
  <path class="cls-6" d="M57.817981995967784,62.593163659802485l1.471699962821731-.40869998967537-.193399995114305.861799978229101s-.066399998322595.202199994891998.144599996347097.224089090018424c.21279999462422.023000000000138.429599989147391,0,.429599989147391,0l-.13569999657193.629910888407721h-.654299983470992l-.175799995558918.855999978375621s.027399999307818.306089133217029.327199991734233.315899992019695c.298799992451677.012189141197268.298799992451677,0,.298799992451677,0l-.122999996892759.55709998592647s-.234399994078558.130899996693188-.870199978016899.114299997112539c-.635699983940867-.017099999568018-1.152299970890454-.100099997471261-1.073199972888688-.537099986431713.08012318969304-.436110855410334.200199994942523-1.279299967682164.200199994942523-1.279299967682164h-.368199990698486l.1221231854488-.638699983865081.276376804484244-.024899999370973s.181623195516295-.059099998507008.214799994573696-.179210904491811c.03219999918656-.122089087896711.108399997261586-.491189078572461.108399997261586-.491189078572461"/>
  <path class="cls-9" d="M57.817981995967784,62.593163659802485l1.471699962821731-.40869998967537-.193399995114305.861799978229101s-.066399998322595.202199994891998.144599996347097.224089090018424c.21279999462422.023000000000138.429599989147391,0,.429599989147391,0l-.13569999657193.629910888407721h-.654299983470992l-.175799995558918.855999978375621s.027399999307818.306089133217029.327199991734233.315899992019695c.298799992451677.012189141197268.298799992451677,0,.298799992451677,0l-.122999996892759.55709998592647s-.234399994078558.130899996693188-.870199978016899.114299997112539c-.635699983940867-.017099999568018-1.152299970890454-.100099997471261-1.073199972888688-.537099986431713.08012318969304-.436110855410334.200199994942523-1.279299967682164.200199994942523-1.279299967682164h-.368199990698486l.1221231854488-.638699983865081.276376804484244-.024899999370973s.181623195516295-.059099998507008.214799994573696-.179210904491811c.03219999918656-.122089087896711.108399997261586-.491189078572461.108399997261586-.491189078572461Z"/>
  <path class="cls-6" d="M23.77208285603956,64.512563611314363c-.181599995412398.664599983210792-.451199988601729.703599982225569-.680677656389889.685099982692918-.232422320543265-.022499999431602-.341822317779588-.353099991079944-.232422320543265-.755399980916991.111299997188326-.401910874716123.290099992671458-.593699985001876.603499984754308-.609910874715752,0,0,.49029998761398.017110889691139.309599992178846.680210872939824M24.898082827594408,63.530163636131874c-.271499993141333-.240699993919407-.982399975182489-.271999993128702-1.374999965264578-.283699992833135-.371099990625225-.00289999992674-.802799979719566.071799998186179-1.045899973578344.137699996521405-.310599992153584.091299997693568-.964899975624576.391099990119983-1.076199972812901,1.236299968768435-.109399997236324.843799978683819.39259999008209.997099974811135.724599981695064,1.096699972295028.332099991610448.100099997471261,1.418999964153045.164099995854485,2.012699949154921-.047810842508625.591799985049875-.21100000000024.927699976564327-.573789141788438,1.070299972961948-1.168000000000575.136699996546668-.568889112405486-.155177620101313-.847189105375037-.31049999215611-.971189102242533"/>
  <path class="cls-9" d="M23.77208285603956,64.512563611314363c-.181599995412398.664599983210792-.451199988601729.703599982225569-.680677656389889.685099982692918-.232422320543265-.022499999431602-.341822317779588-.353099991079944-.232422320543265-.755399980916991.111299997188326-.401910874716123.290099992671458-.593699985001876.603499984754308-.609910874715752,0,0,.49029998761398.017110889691139.309599992178846.680210872939824ZM24.898082827594408,63.530163636131874c-.271499993141333-.240699993919407-.982399975182489-.271999993128702-1.374999965264578-.283699992833135-.371099990625225-.00289999992674-.802799979719566.071799998186179-1.045899973578344.137699996521405-.310599992153584.091299997693568-.964899975624576.391099990119983-1.076199972812901,1.236299968768435-.109399997236324.843799978683819.39259999008209.997099974811135.724599981695064,1.096699972295028.332099991610448.100099997471261,1.418999964153045.164099995854485,2.012699949154921-.047810842508625.591799985049875-.21100000000024.927699976564327-.573789141788438,1.070299972961948-1.168000000000575.136699996546668-.568889112405486-.155177620101313-.847189105375037-.31049999215611-.971189102242533Z"/>
  <path class="cls-6" d="M35.926405199648798,64.512563611314363c-.180722646087816.664599983210792-.449222639304935.703599982225569-.680722633456753.685099982692918-.231399994154344-.022499999431602-.34269999134267-.353099991079944-.231399994154344-.755399980916991.110299997213588-.401910874716123.289999992673984-.593699985001876.603499984754308-.609910874715752,0,0,.489299987639242.017110889691139.30862264285679.680210872939824M37.052405199649002,63.530163636131874c-.271522672239371-.240699993919407-.982422654280526-.271999993128702-1.373999999999796-.283699992833135-.372122634988045-.00289999992674-.802822624107648.071799998186179-1.045000000000073.137699996521405-.312522610094675.091299997693568-.965822593590929.391099990119983-1.076122590804516,1.236299968768435-.112299997163063.843799978683819.390599990132614.997099974811135.722599981745589,1.096699972295028.33109999163571.100099997471261,1.419899964130309.164099995854485,2.012699949154921-.047810842508625.593822659902798-.21100000000024.928699976539065-.573789141788438,1.070299972961948-1.168000000000575.137699996521405-.568889112405486-.155199996079318-.847189105375037-.310477313058072-.971189102242533"/>
  <path class="cls-9" d="M35.926405199648798,64.512563611314363c-.180722646087816.664599983210792-.449222639304935.703599982225569-.680722633456753.685099982692918-.231399994154344-.022499999431602-.34269999134267-.353099991079944-.231399994154344-.755399980916991.110299997213588-.401910874716123.289999992673984-.593699985001876.603499984754308-.609910874715752,0,0,.489299987639242.017110889691139.30862264285679.680210872939824ZM37.052405199649002,63.530163636131874c-.271522672239371-.240699993919407-.982422654280526-.271999993128702-1.373999999999796-.283699992833135-.372122634988045-.00289999992674-.802822624107648.071799998186179-1.045000000000073.137699996521405-.312522610094675.091299997693568-.965822593590929.391099990119983-1.076122590804516,1.236299968768435-.112299997163063.843799978683819.390599990132614.997099974811135.722599981745589,1.096699972295028.33109999163571.100099997471261,1.419899964130309.164099995854485,2.012699949154921-.047810842508625.593822659902798-.21100000000024.928699976539065-.573789141788438,1.070299972961948-1.168000000000575.137699996521405-.568889112405486-.155199996079318-.847189105375037-.310477313058072-.971189102242533Z"/>
  <polygon class="cls-6" points="20.312082943446512 65.635163582955101 18.869782979882075 65.635163582955101 19.463482964883951 63.103352738374269 17.851183005614075 63.103352738374269 18.128482998608888 62.177163670311529 22.796482880685289 62.177163670311529 22.519182887690476 63.103352738374269 20.9068829284206 63.103352738374269 20.312082943446512 65.635163582955101"/>
  <polygon class="cls-9" points="20.312082943446512 65.635163582955101 18.869782979882075 65.635163582955101 19.463482964883951 63.103352738374269 17.851183005614075 63.103352738374269 18.128482998608888 62.177163670311529 22.796482880685289 62.177163670311529 22.519182887690476 63.103352738374269 20.9068829284206 63.103352738374269 20.312082943446512 65.635163582955101"/>
  <path class="cls-6" d="M33.792582602900438,63.291352738374371l-1.87299995268404,2.565910838970012s-.261799993386376.331089161029922-.591799985049875.520089161030228c-.36329999082227.207000000000335-.686599982655025.211910820477897-.744199981199927.211910820477897-.23339999410382,0-.588799985125661-.042999998913729-.77729998036375-.155799996064161l.123999996867497-.601999984792201.420899989367172.041999998938991c.115222509812156.022889161439707.330099991660973-.021999999444233.442399988824036-.209999994694954.058599998519639-.099110843865674.048822520986505-.326199991759495.000999999974738-.480999987848918l-.794999979916611-1.891110856016894h1.499999962106813l.380899990377657,1.083000000000538.747099981126667-1.083000000000538h1.164999970569625Z"/>
  <path class="cls-9" d="M33.792582602900438,63.291352738374371l-1.87299995268404,2.565910838970012s-.261799993386376.331089161029922-.591799985049875.520089161030228c-.36329999082227.207000000000335-.686599982655025.211910820477897-.744199981199927.211910820477897-.23339999410382,0-.588799985125661-.042999998913729-.77729998036375-.155799996064161l.123999996867497-.601999984792201.420899989367172.041999998938991c.115222509812156.022889161439707.330099991660973-.021999999444233.442399988824036-.209999994694954.058599998519639-.099110843865674.048822520986505-.326199991759495.000999999974738-.480999987848918l-.794999979916611-1.891110856016894h1.499999962106813l.380899990377657,1.083000000000538.747099981126667-1.083000000000538h1.164999970569625Z"/>
  <polygon class="cls-5" points="38.625582480808589 62.185463670101853 40.340482437486571 62.185463670101853 40.87458242399407 63.494463637033732 41.927405199649002 62.181563670200376 43.419582359701963 62.184463670127116 41.266182414101422 64.58826360940202 40.995682420934827 65.616563583424977 39.619782455692985 65.616563583424977 39.795482451254429 64.603352738374269 38.625582480808589 62.185463670101853"/>
  <path class="cls-5" d="M44.357982335995985,65.003263598918238c-.167899995758489.09529999759252-.248999993709731.218299994485278-.488199987667031.218299994485278-.242199993881513,0-.368199990698486-.079099998001766-.351599991117837-.193399995114305,0,0,.076222842437346-.317810859914971.458999988404685-.364699990786903.381799990354921-.046899998815206.506799987197155.032699999173929.506799987197155.032699999173929,0,0,.041999998938991.212399994634325-.125999996816972.307099992242001M45.97818229506629,63.71035273837424c-.089899997728935-.51268909384271-1.011777095416619-.607889091437755-2.127999946242198-.518089093706294-1.115199971827678.091299997693568-1.289999967411859.62599998418591-1.289999967411859.62599998418591v.114199997115065h1.17279997037258c.089899997728935-.181110887594514.419999989389908-.292899992600724.748099981101404-.251899993636471.327099991736759.040999998964253.172799995634705.42578910604243.037099999062775.513699987022846-.137699996521405.088299997769354-.77729998036375-.020999999469495-1.14059997118602.033199999161297-.362299990847532.055099998608057-.671899983026378.209889119858417-1.006899974563567.380799990380183-.335899991514452.170899995682703-.483399987788289.969299975513422.33109999163571,1.090299972456705.813499979449261.120699996950862,1.214799969311571-.048299998779839,1.793899954682274-.327099991736759v.299799992426415h1.183599970099749s.38969999015535-1.44869996340276.298899992449151-1.960910843668898"/>
  <polygon class="cls-5" points="46.916582271360312 62.204463669621873 48.286782236746149 62.202563669669871 47.903882246419016 64.281663617147387 48.945882220095882 63.297263642015423 50.492782181017901 63.297263642015423 49.416582208205 64.295263616803823 50.288682186173901 65.629263583104148 48.529882230604926 65.629263583104148 47.863882247429501 64.472563612324848 47.550405199648594 65.656663582411966 46.18808228976377 65.642463582770688 46.916582271360312 62.204463669621873"/>
  <polygon class="cls-5" points="26.11978279673167 62.178063670288793 27.488882762145295 62.178063670288793 27.107082771790374 64.281663617147387 28.148082745492502 63.298263641990161 29.694982706414521 63.298263641990161 28.61878273360162 64.29626361677856 29.490882711570521 65.636063582932366 27.73298275597881 65.636063582932366 27.065982772828647 64.473563612299586 26.754482780697799 65.636063582932366 25.392182815112392 65.636063582932366 26.11978279673167 62.178063670288793"/>
  <path class="cls-5" d="M50.993782168361577,63.25916364297791h1.307623031287221l-.25,1.375999965239316s-.122999999999593.335399991527083.268576935210149.396499989983568c.392499990084616.058599998519639.571199985570274-.388199990193243.571199985570274-.388199990193243l.335999991511926-1.370110869633208h1.362299965585407l-.456076877877422,2.416910843188816h-1.382823075668057v-.373999990551965s-.33689999148919.430199989132234-1.271499967879208.430199989132234c-.93359997641528,0-.868099978069949-.990199974985444-.868099978069949-.990199974985444l.382799990329659-1.497099962180073Z"/>
  <polygon class="cls-5" points="55.594405199648463 62.211263669450091 56.9156820187618 62.211263669450091 56.188082037142522 65.647352738374138 54.782782072643386 65.647352738374138 55.594405199648463 62.211263669450091"/>
  <path class="cls-5" d="M57.817981995967784,62.593163659802485l1.471699962821731-.40869998967537-.193399995114305.861799978229101s-.066399998322595.202199994891998.144599996347097.224089090018424c.21279999462422.023000000000138.429599989147391,0,.429599989147391,0l-.13569999657193.629910888407721h-.654299983470992l-.175799995558918.855999978375621s.027399999307818.306089133217029.327199991734233.315899992019695c.298799992451677.012189141197268.298799992451677,0,.298799992451677,0l-.122999996892759.55709998592647s-.234399994078558.130899996693188-.870199978016899.114299997112539c-.635699983940867-.017099999568018-1.152299970890454-.100099997471261-1.073199972888688-.537099986431713.08012318969304-.436110855410334.200199994942523-1.279299967682164.200199994942523-1.279299967682164h-.368199990698486l.1221231854488-.638699983865081.276376804484244-.024899999370973s.181623195516295-.059099998507008.214799994573696-.179210904491811c.03219999918656-.122089087896711.108399997261586-.491189078572461.108399997261586-.491189078572461"/>
  <path class="cls-5" d="M23.77208285603956,64.512563611314363c-.181599995412398.664599983210792-.451199988601729.703599982225569-.680677656389889.685099982692918-.232422320543265-.022499999431602-.341822317779588-.353099991079944-.232422320543265-.755399980916991.111299997188326-.401910874716123.290099992671458-.593699985001876.603499984754308-.609910874715752,0,0,.49029998761398.017110889691139.309599992178846.680210872939824M24.898082827594408,63.530163636131874c-.271499993141333-.240699993919407-.982399975182489-.271999993128702-1.374999965264578-.283699992833135-.371099990625225-.00289999992674-.802799979719566.071799998186179-1.045899973578344.137699996521405-.310599992153584.091299997693568-.964899975624576.391099990119983-1.076199972812901,1.236299968768435-.109399997236324.843799978683819.39259999008209.997099974811135.724599981695064,1.096699972295028.332099991610448.100099997471261,1.418999964153045.164099995854485,2.012699949154921-.047810842508625.591799985049875-.21100000000024.927699976564327-.573789141788438,1.070299972961948-1.168000000000575.136699996546668-.568889112405486-.155177620101313-.847189105375037-.31049999215611-.971189102242533"/>
  <path class="cls-5" d="M35.926405199648798,64.512563611314363c-.180722646087816.664599983210792-.449222639304935.703599982225569-.680722633456753.685099982692918-.231399994154344-.022499999431602-.34269999134267-.353099991079944-.231399994154344-.755399980916991.110299997213588-.401910874716123.289999992673984-.593699985001876.603499984754308-.609910874715752,0,0,.489299987639242.017110889691139.30862264285679.680210872939824M37.052405199649002,63.530163636131874c-.271522672239371-.240699993919407-.982422654280526-.271999993128702-1.373999999999796-.283699992833135-.372122634988045-.00289999992674-.802822624107648.071799998186179-1.045000000000073.137699996521405-.312522610094675.091299997693568-.965822593590929.391099990119983-1.076122590804516,1.236299968768435-.112299997163063.843799978683819.390599990132614.997099974811135.722599981745589,1.096699972295028.33109999163571.100099997471261,1.419899964130309.164099995854485,2.012699949154921-.047810842508625.593822659902798-.21100000000024.928699976539065-.573789141788438,1.070299972961948-1.168000000000575.137699996521405-.568889112405486-.155199996079318-.847189105375037-.310477313058072-.971189102242533"/>
  <polygon class="cls-5" points="20.312082943446512 65.635163582955101 18.869782979882075 65.635163582955101 19.463482964883951 63.103352738374269 17.851183005614075 63.103352738374269 18.128482998608888 62.177163670311529 22.796482880685289 62.177163670311529 22.519182887690476 63.103352738374269 20.9068829284206 63.103352738374269 20.312082943446512 65.635163582955101"/>
  <path class="cls-5" d="M33.792582602900438,63.291352738374371l-1.87299995268404,2.565910838970012s-.261799993386376.331089161029922-.591799985049875.520089161030228c-.36329999082227.207000000000335-.686599982655025.211910820477897-.744199981199927.211910820477897-.23339999410382,0-.588799985125661-.042999998913729-.77729998036375-.155799996064161l.123999996867497-.601999984792201.420899989367172.041999998938991c.115222509812156.022889161439707.330099991660973-.021999999444233.442399988824036-.209999994694954.058599998519639-.099110843865674.048822520986505-.326199991759495.000999999974738-.480999987848918l-.794999979916611-1.891110856016894h1.499999962106813l.380899990377657,1.083000000000538.747099981126667-1.083000000000538h1.164999970569625Z"/>
  <path class="cls-3" d="M57.127582013408755,47.311352738374808c-2.981499924680975.117211304517696-4.487299886641267.416999999999462-7.513699810187973,1.776911262590147-2.819299928778491,1.267088737409722-5.557599859603215,3.493199911754346-5.658199857061845,3.66599990738905,3.267599917453481-4.967799874502816,6.954099824324658-7.770999803688028,7.465799811398028-8.09369979553594.216799994523171-.170899995682703.138699996496143-.209999994694954-.048799998767208-.190999995174934-3.128899920957338.756899980879098-5.592799858713988,2.496599936930579-7.016599822745775,3.568899909842003-1.422899964054523,1.071799972924055-3.507799911385518,3.237799918206292-3.806677136395592,3.659199907560833-.297822759916016.421799989344436-.50782275461097.680599982806598-.594722752415692,1.155688803328303-.088799997756723.475111155474224.316399992007064,1.493211129754854.419899989392434,1.879911119985991.103599997382844.387199990218505.25689999351016,1.670899957789516.221699994399387,1.982899949907733,0,0-.896499977352505-3.034599923339556-1.107399972024723-3.070811069893352-.210899994672218-.035088851645014-.344699991292146.300811139869438-.419899989392434.438000000000102-.842799978709081,1.523000000000138-1.567399960404146,2.025911085224834-1.567399960404146,2.025911085224834,2.239299943430524-3.318911085225409,3.32619991597312-7.840799801924732,3.456999912668834-8.36959978856612.12989999671845-.53031129665851.836899978858128-.874099977918377.836899978858128-.874099977918377,0,0,1.160199970690883-.661099983299209,2.320399941381766-1.821211318740097,1.159099970718671-1.161188605918142,1.792899954707536-2.537188571157458,2.213799944074708-3.873088537409785.42189998934191-1.335911462590957,1.685599957418162-3.732911462590891,1.961899950438237-5.447699862379523.656299983420467-4.078211600211034-1.722599956483464-7.219299817625142-2.402299939312798-7.993211600210998-.678699982854596-.773888178313427-2.75587709766296-3.112788119227844-6.341799839792657-3.792999999999665-3.585899909412547-.680188084861584-6.661077257871511,1.794911852612131-6.907199825509451,1.957111848514614-.247099993757729.162999995882274-.616199984433479.091699997683463-1.041999973676866-.059111848515386-.914099976907892-.304688142294253-2.574199934970238-.950188125987552-4.541999885259429-.667999999999665-1.968799950263929.280311859802168-2.748099930577155,1.788111821711936-2.606499934154272,3.147911787360499.140699996445619,1.359899965646036,1.603622360729787,2.468299937645497,1.802799954457441,2.65529993292148.201099994919787.186999995275983.025399999358342.326699991746864.025399999358342.326699991746864l-.765699980656791.640088287971594s-.419877612430355.0161116954514-.489199987641769.181211691280623c-.070299998224073.163099995879747.00289999992674.321699991873174.181599995412398.444788308718671.176799995533656.123000000000502.204099994844.114311677157275.204099994844.114311677157275-.60937761504465.046799998817733-.924799976637587.330499991650868-1.27629996775795.728999981583911-1.289077647286831,1.617599959135987-1.903399951916072,3.082999922116869-2.049799948217697,3.262688341259491-.147499996273837.180111571768066-.254899993560684.021911575764534-.254899993560684.021911575764534,0,0-.415099989513692-.437999988935189-.543999986257404-.642999983756454-.130799996695714-.205099994818738-.269499993191857-.040099998986989-.269499993191857-.040099998986989l-.638699983865081.227099994262971c2.249999943160219-1.570799960318254,2.234399943554308-3.377999914664542,2.248099943208217-4.381911587284776.011722314598956-1.002888276683734-1.039099973750126-1.772888257231898-1.25489996829856-1.879788254531377-.217799994497909-.104999997347477-.243199993856251-.323299991832755-.266599993265118-.577211745468048-.105499997334846-1.617188199096745-1.53029996134137-2.997088164237539-1.53029996134137-2.997088164237539,3.217799918711535-9.315911835762563,5.842799852398457-12.626911835763167,6.79099982844491-14.173799641939695.950199975995929-1.546899960922019,3.327199915947858-4.458999887356185,3.186522409057943-7.376899813643831-.140622486003849-2.91799992628512-1.450122452923097-3.558212380179612-2.47752242696879-4.196299893992546-3.420899913580797-1.674799957690993-6.192399843566818.227999994240236-7.690399805724155,1.755299955657392-3.428699913383753,3.495599911693716-4.272499892067572,6.659699831761827-4.99219987388642,9.335999764152803-1.425799963981262,4.635699882892368-1.187499970001227,13.52878779400271-1.187499970001227,13.52878779400271-1.743199955963064.958000000000538-2.351599940593587,2.373000000000502-2.468799937632866,2.724111795414501-.117099997041805.352099991105206-.208899994722742.921888204586139-.201099994919787,1.021999974182108.009699999754957.099099997496523.003899999901478.35299999108247-.021477990865606.476999987949966-.303722000919151.539099986381189-.815421987992522,1.773999955184991-.930721985079799,2.616699933896598-.118099997016543.844299978671188.036199999085511,2.1752999450473.294899992550199,2.908188308557328.258821992529192.731999999999971.738299981348973,1.685111575406154.808599979573046,2.082999999999629.070299998224073.399000000000342.225599994300865.623111549613895.717799981866847,1.279811533024258.49319998754072.656299983420467,1.336899966227065.895999977365136,1.497099962180073.967299975563947.160099995955534.071799998186179.156199996054056.727099981631909.120099996966019.966799975576578-.037099999062775.240199993932038-.234399994078558.185999995301245-.352499991095101.197299995015783-.608399984630523.023899999396235-1.859399953027605.319788520820111-2.631899933512614,1.37399996528984-.774378003448874,1.054699973356037-.518499986901588,2.082999947378994-.588799985125661,2.410599939103122-.069399998246809.328188616426814-.438499988922558.91509997688263-.531299986578233,1.290099967409333-.094699997607677.374999990526703-.037099999062775.955088649017853.022499999431602,1.195299969804182.059499998496904.239699993944669.600599984827568.93069997648854.646499983668036,1.12499997158011.022399999434128.351999991107732-.28227801484536.20989999469748-.236399994028034,1.404788707633088.047899998789944,1.19581122667023.9628999756751,1.914999999999964,1.219699969187786,2.009211206122018.258799993462162.092788793877844.49609998746746.295899992524937.536199986454449.451699988589098.039999998989515.155299996076792-.015599999605911.468299988169747.123999996867497,1.030299973972433.142599996397621.563899985754688.921899976710847,1.104999972085352.921899976710847,1.104999972085352,0,0,.707999982114416.224599994326127.357399990971317.505788859230961-.351599991117837.282211120862485-.98929997500818.720211109797674-1.176799970271531.931211104467366-.187499995263352.20989999469748-1.049799973479821,1.438899963650329-.159099995980796,2.539999935834203.889599977526814,1.102099972158612,3.602499908993195,1.050788959698366,5.59469985866599.440899988861929,1.992199949672795-.608899984617892,2.190399944665842-1.632299958764634,2.073199947626563-2.195299944542057-.117199997039279-.561999985802686-.680599982806598-.994599974874291-.951077781050117-1.265599968028255-.270522188089672-.271999993128702-.285222187718318-.468299988169747-.325222186707833-.674299982965749-.072299998173548-.164099995854485-.131899996667926-.560099985850684.110299997213588-.560099985850684.79692218949458-.233899994091189,2.278299942445301-1.164999970569625,2.569399935091496-1.358899965671299.292899992600724-.194799995078938.516599986949586-.210911182105519.54679998618667.063999998383224.343799991314881,2.303199941816274,1.397499964696181,4.487299886641267,2.076199947550776,5.774899854113755.09769999753189.185099995323981.204099994844.373999990551965.315399992032326.560999985827948h21.675799452423234c.102599997408106-.125899996819498.196322876210616-.243599993846146.271499993141333-.339811020429806,6.390599838559865-8.159188764867395,12.170899692537205-10.791000000000167,12.680699679658574-10.904788695507705.315399992032326-.122999996892759-.520499986851064-.080099997976504-.679699982829334-.118211304492434"/>
  <path class="cls-8" d="M46.574782279994906,29.366564499177002c-1.430599963860004-2.67139993251476-4.42769988814689-4.220211760802158-5.38769986389525-4.595211760802158-.681599982781336-.266088116391074-1.475499962725735-.373000000000502-1.880799952486996-.413088112677542l-.050799998716684-.01899999952002s-.302699992353155-.040099998986989-.950199975995929-.122099996915495c-.648399983620038-.080599997963873-1.113299971875676.061999998433748-1.113299971875676.061999998433748l-.008799999777693.014188110679243c-.02929999925982.006811888790253-.051699998693948.0112118886791-.086899997804721.023911888358271,0,0-2.157199945504544.409199989662739-3.354499915258202,1.416999964203569-.293899992575462.230999994164449-.532199986555497.496088147438059-.637699983890343.636199983928236l2.39549993948458,1.561999960540561s.034199999136035.046888202969058,1.207099969506089.957999975798884c.879899977771856.683099982743443,1.474599962748471,1.524888227169868,1.71772267036431,1.902888227170479v.005811724611704c.005877286093892.006399999838322.011777285944845.015188275388027.016577285823587.020999999469495.069422714177563.108399997261586.106499997309584.173399995619548.106499997309584.173399995619548l.038099999037513-.00739999981306c.452099988578993.578188280112045,1.025399974096217,1.747099955864542,1.401299964600184,2.645099933179154.422899989316647,1.007299974553462.644599983716034,2.329999941139249.55179998606036,2.799299929283734-.140599996448145-1.148899970976345-1.115199971827678-3.548399910359876-2.358399940421805-5.165099869518599-1.242199968619389-1.617111712832411-3.632799908227753-3.575199909682851-5.881799851413234-4.653299882447754-2.249999943160219-1.078599972752272-4.149399895177339-1.197699969743553-5.297899866163789-1.057599973282777-1.148399970988976.139699996470881-2.419899938868184,1.492699962291226-2.152299945628329,2.900899926717102.269499993191857,1.409199964400614,1.469699962872255,2.119099946467031,1.469699962872255,2.119099946467031.383799990304396.426788269714052.565422407924416.232899994116451.565422407924416.232899994116451,0,0,.372077568392342-.350111724402268,1.3095775447091-.725111724402268s1.148422455291438-.204999999999927,1.538099961144326.01521174233585c.391599990107352.220699994424649.393499990059354,1.557599960651714.393499990059354,1.557599960651714,0,0-.015599999605911.556099985951732.117199997039279.559099985875946.327199991734233-.046911688863474.519622507046734-1.561999960540561.519622507046734-1.561999960540561,1.782177434804908,0,3.043877402931685.99508827167665,3.597577388944046,1.318299966696941.555699985961837.324699991797388.568422611057031.561999985802686.568422611057031.561999985802686,0,0-1.145522596478258.586899985173659-1.497122587596095.890699977499025-.350599991143099.304199992315262.048799998767208.304199992315262.048799998767208.304199992315262,0,0,1.617199959146092-.429199989157496,2.272499942591821-.429199989157496.657199983397732,0,1.181599970150273.121088338521076,1.344699966030021.825199979153695.165122680205968.7030999822382-.161099995930272,2.123999946343247-.161099995930272,2.123999946343247,0,0-.240199993932038.72209998175822.041999998938991.72209998175822.280299992919026,0,.784222677197249-1.312899966833356.784222677197249-1.312899966833356.563377288759511.632799984014127.631777287031582,1.164499970582256.702077285255655,2.524899936215661.070299998224073,1.358788461882796-.151399996175314,2.478999937375193-.151399996175314,2.478999937375193.25689999351016-.070299998224073.464899988255638-.108399997261586.300799992401153.383788524508418-.163099995879747.493111453339225-.60539998470631,1.877911418356234-.725599981669802,2.785111395438435-.235299994055822,2.156699945517175,1.151399970913189,2.77199992997339,2.387699939681625,2.773888604560852,2.577199934894452-.094188672255768,4.488299886616005-2.805088603772674,4.876999876796617-3.478000000000065.389599990157876-.672788569777367.663099983248685-2.006788536077693.708999982089153-2.269999999999527.045899998840468-.263188522780183.095699997582415-.446788518142057.282199992871028-.900888506670526.197299995015783-.51219998706074.527299986679282-1.219199969200417,1.138699971234018-2.60989993406838,1.007799974540831-2.999999924213625.721599981770851-5.306099865956639-.707099982137152-7.977999798458768"/>
  <path class="cls-6" d="M11.899083155976768,27.151264555140187s.699199982336722-1.142099971148127,1.753899955692759-1.45899996314256c1.054699973356037-.31591185362322,2.470699937584868-.338911853623358,3.284099917036656-.122099996915495.815499979398737.21729999451054,2.649499933068.897999977314612,3.317399916195427,2.586499934659514.667999983124901,1.686499957395426.303699992327893,2.531688208632659-.400399989885045,3.30559991649352l-.578099985395966-.752911707860221s.928699976539065-.704088255332863.751999981002882-1.793000000000575c-.175799995558918-1.089788200293697-1.720699956531462-2.582999999999629-3.091799921894562-2.688888159897033,0,0-1.222699969112-.124999996842234-1.369199965411099-.026899999320449-.145499996324361.098599997509154-.388577863668615.254899993560684-.740199981300975.324699991797388-.350599991143099.07129999819881-.93359997641528-.308099992216739-2.927699926040077.62599998418591"/>
  <path class="cls-6" d="M18.119782998828668,30.536464469622842s1.186499970026489.538099986406451,1.467699962922779,1.709999956801767c.281299992893764,1.170888311949966.040099998986989,1.724099956445571-.381799990354921,2.263699942814128l-.305699992277368-.570811630864227s.148499996248574-.179188350189179.215899994545907-.371088345341377c.068299998274597-.191911654658725.162999995882274-.873099977943639-.10059999745863-1.526911654658761-.26269999336364-.656188290191494-.581099985320179-1.118088278522919-.895499977377767-1.504888268751529"/>
  <path class="cls-6" d="M20.579682936686368,31.635164441867346s.295899992524937-.734899981434864.400399989885045-.922899976685585c.105499997334846-.186999995275983.242199993881513-.169911726807186.33689999148919-.13569999657193.093799997630413.035599999100668.643599983741296.330999991638237.772499980485009,1.127899971506849.128922301102648.795888298257523-.102599997408106,2.111799946651445-.617199984408217,2.75588829825756-.07129999819881.105911629447291-.163099995879747.02100000000064-.098599997509154-.120088364843468.061499998446379-.140699996445619.382799990329659-.831099979004648.371099990625225-1.673911635156401-.012699999679171-.845188301205781-.193377707604668-1.251888290931674-.533199986530235-1.264088290623476-.338899991438666-.010799999727169-.449299988649727.124999996842234-.631899984036863.232899994116451"/>
  <path class="cls-6" d="M17.29940519964839,33.399264397302431s-.10842217735626-.099099997496523.055677818498225-.075699998087657c.164099995854485.023999999393709,1.172899970370054.53569998646708,1.349599965906236,1.555699960699712.175799995558918,1.018088378459652-.178699995485658,2.157199945504544-1.349599965906236,2.534199935980723-.090799997706199.000999999974738-.108399997261586-.035199999110773-.114199997115065-.097199997544521-.006899999825691-.059999998484273.004799999878742-.337911559976419.004799999878742-.337911559976419,0,0,.040099998986989-.079088429489275.123099996890232-.099088428984032.083999997877982-.020999999469495.769499980560795-.207999994745478.921899976710847-1.108911571015597.151299996177841-.901788378189849-.066399998322595-1.686999999999898-.991277794862981-2.371088341072209"/>
  <path class="cls-6" d="M15.775983058038037,36.119464328584399s.446299988725514-.058999998509535.716799981892109.398999989920412c.268622159717779.456999988455209.370099990650488,1.573699960244994-.976599975329009,2.030699948700203,0,0,.75299998097762-.515599986974848.812499979474524-1.242599968609284.057722155572264-.727099981631909-.15427784442727-.806211560221527-.552699986037624-1.187099970011332"/>
  <path class="cls-1" d="M18.312082993970762,4.306565132245851s2.508799936622381-3.454099912742095,5.461999862018274-3.804212393871239c1.248999968447606-.11918750701534,3.923799900876475.131812486643867,4.954099874848907,2.686999999999898.272399993118597.724112403801882.646399983670563,1.656212380255056.012699999679171,3.600999999999658-.632899984011601,1.945812281970575-4.154299895053555,7.233000000000175-4.786199879090418,8.208112123771571-1.217799969235784,1.871999952709302-3.705999906378565,7.293887876228837-5.112277651778641,10.880799725127872,0,0-2.023422167958415-1.33199996635085-4.858422096340291-.816911848898599,0,0-.445299988750776-5.977000000000771.602599984777044-11.5111878396674.43749998894782-2.020499948957877,1.084899972593121-5.469699861823756,3.725499905885954-9.244599766461761"/>
  <path class="cls-1" d="M13.857983106490792,39.547264241990888s-.015577906842736-.130911503616517.143599996372359-.115699997077172c.158199996003532.014599999631173,1.317399966719677-.166099995803961,1.7216999565062-.36039999089553.404299989786523-.191899995152198.928699976539065-.518999986888957,1.122999971630634-.782699980227335,0,0,.167999995755963.060099998481746-.02929999925982.260699993414164-.196299995041045.202188471169393-.520499986851064.626999984160648-.641577832091571.910188471169931-.119122148691531.284211498656987-.282222144571278.621111490146177-.457000000000335,1.287111473321602l-1.880922092639594-.260299993424269.020499999482126-.938899976281391Z"/>
  <path class="cls-6" d="M27.826782753609223,30.6224644674503s.637699983890343-.426299989230756.934622446038702-.322299991858017c.296777522853517.103999997372739.977477505657589.286099992772506.180577525788976,2.114299946588289-.796799979871139,1.827099953843572-1.388577525787696,3.335888316193632-1.388577525787696,3.335888316193632,0,0-.220722433557967-2.110788347142261-.339922430546721-2.375999999999294-.118199997014017-.26318833379446-.433599989046343-.975088315810353-.830999979007174-1.139088311667365,0,0,.44039998887456-.485911688332635.981399975207751-.767099980621424.537099986431713-.280811707711109.994099974886922-.202699994879367,1.056599973308039-.134811707711378.061599998443853.067911709401415.29199999262346.244211704947702.3154999920298.736811692503579,0,0,.174799995584181-.020999999469495.184499995339138-.237811692503783.009799999752431-.215788296037317.057699998542375-.995088276350543-.762699980732577-1.042000000000371,0,0-.644499983718561.1172117218739-.330999991638237-.167888270923868"/>
  <path class="cls-6" d="M25.929282801544105,32.706464414804032s.540122398104359-.056199998580269.914122398104155,1.23379996883159c.376000000000204,1.289088354738851.34277757014388,2.565999935177388.272477571919808,3.104088354739361l-2.24129994338.357911557803163s-.506799987197155-.409699989650107-.492099987568508-.884799977648072c.012699999679171-.474111580155295.111299997188326-1.390111580155462.322199991860543-1.788111580155601.210999994669692-.398888364596132.704099982212938-1.444788338174476,1.224599969064002-2.022888323570442"/>
  <path class="cls-6" d="M28.996682724055063,37.71035273837424s1.010799974465044-.413088439543571,1.369199965411099-.75c.358399990946054-.335999999999331,2.193299944592582-2.030788379730438,3.317299916197953-2.5,1.12499997158011-.467788356059827,2.13279994612094-.44488835663833,2.368222593984683-.092788365533124.235377340242849.350599991143099.144477342539176.61569998444611-.123999999999796.50189998732094-.267622643918003-.115199997089803-.550822636763769-.400299989887571-1.371122616041248-.282199992871028-.821299979252217.117199997039279-1.309599966916721.441899988836667-1.192399969877442.605999984691152.30759999222937.041999998938991.816399979376001-.131911613607372,1.261699968126777-.107911613607939.445299988750776.023911615729958,1.023499974144215.260211609760518,1.165999970544362.962911592008822.138699996496143.704088407991549.135822647247551,2.213299944087339-.943299976170238,3.338299915667449,0,0,.701122623417177-1.823211507676206.397399989960832-2.573211507676206-.306599992254633-.75-1.197199969756184-.685088410012213-1.601499959542707-.338888418757961-.403299989811785.345699991266883-.914099976907892.893099977438396-.889699977524288,1.150888418757859.032299999184033.085000000000036.783199980214704,1.127000000000407.783199980214704,1.127000000000407l-1.176699970274058-.252999999999702s-.160199995953008-.079088467913607-.394577439416025.40821151977616c-.23342254471936.486899987699871-.608422535246063,1.541999961045804-.515622537590389,1.992699949660164.089899997728935.451199988601729.163099995879747.617199984408217.62599998418591.844199978673714,0,0-.383799990304396.179699995460396-.707999982114416.166999995781225-.326199991759495-.012199999691802-1.006899974563567-.098111443891867-1.053699973381299-.659111443891561-.046899998815206-.563000000000102,0-.658188522830642-.23339999410382-1.478088502118226-.235399994053296-.81979997929011-.440499988872034-1.229911497881403-1.084999972590595-2.063911497882145"/>
  <path class="cls-5" d="M23.398082865487595,35.132164353525695s.249999993684469-.299811615151157.413099989564216-.229899994192238c.164999995831749.070299998224073.175699995561445.37199999060249.175699995561445.37199999060249l.021522349035877.35208838843846s-.041000000001077.686000000000604.002000000000407.983911577811341c.044877649235787.298299992464308.215777644918489.744088422188725.357377641341373.954999975874671l-2.204099944319751.739299981323711s.141599996422883-1.018099974280631.381799990354921-1.518099961649568c.241299993904249-.499999987368938.422922312622177-1.076111573360322.852599978461512-1.654299958208867"/>
  <path class="cls-5" d="M30.269182691909009,42.02035273837464s.67669998290512.31111143328144,1.075222507739454.270999999999731c.399377455009017-.039999999999964.780177445389199-.131788562375732,1.082000000000335-.263188559056289.30267743011791-.128899996743712,1.697277394887351-1.052699973406561,1.872999999999593-1.158699970728776.174877386030857-.104899997350003.94537736656639-.666899983152689,1.882877342883148-.387199990218505.937499976316758.282299992868502,1.238199968720437,1.167999970493838,1.329999966401374,1.706088520003505.094799997605151.539111423277973.093799997630413,1.76121139240513-.445299988750776,2.463911374653435-.539999986358453.703088625346936-1.152299970890454,1.237299968743173-2.558577320533004,1.261199968139408-.836922593689451.054699998618162-1.992222564504118-.503899987270415-1.992222564504118-.503899987270415l-4.282199891822529-1.761211355522391c.656299983420467-.116688597037864.943422456326516-.25,1.366199965486885-.555188585960423.420899989367172-.303699992327893.537099986431713-.620599984322325.668999983099638-1.072811414039279"/>
  <path class="cls-1" d="M27.713482756471421,37.580464291676435c.598599984878092.168888446698475,1.187499970001227.675799982927856,1.478499962649948,1.193799969842075.290999992648722.517088476855861.998999974763137,2.30229994183901.601599984802306,3.263199917564634-.398399989935569.960999975723098-.863299978191208,1.311999966856092-2.386699939706887,1.194799969816813-1.023477564567656-.215799994548433-1.258799968200037-.332999991587712-1.657299958133081-.661099983299209l1.359399965658667-.281699992883659s.33109999163571.064888565657384.454099988528469.157699996016163c.123099996890232.094188569641119.622099984284432.323188569641388.739322439378157.066399998322595.117177538984834-.258299993474793-.287122450801689-.429211428680901-.287122450801689-.429211428680901,0,0-.28619999276998-.231000000000677-.342799991340144-.354000000000269-.058599998519639-.123088548423766-.07129999819881-.588888536656668-.07129999819881-.588888536656668,0,0-.276399993017549.236799994017929-.253899993585947.394099990044197.021499999456864.156699996041425.136699996546668.423788546612741-.335877566074487.459899988381949-.474622413450561.034699999123404-3.190522344841156.352099991105206-4.876999999998588-.351999991107732-1.68942225956016-.703199982235674-1.189422272191223-1.755899955642235-.298822294689671-2.530299936079246.890599977501552-.772899980474904,2.950199925471679-1.310999966881354,3.325199915998382-1.40381151458223.373999990551965-.093788447585212,1.56249996052793-.409188439617537,2.552699935513374-.128888446698511"/>
  <path class="cls-6" d="M9.962483204899399,43.814352738374509s-.020499999482126-.449688592819257.121099996940757-.918999999999869c.139699996470881-.469188569110884.764699980682053-1.456000000000131,1.771499955248146-1.737788537063352,1.008799974515568-.280211462936677,2.6845999321813-.07999999797903,2.6845999321813-.07999999797903l1.583999959984794.306599992254633s.417899989442958-1.540999961071066.627899984137912-1.868699952792667c.210899994672218-.328111504419212.882822166257029-1.287111504419954,1.819299954040616-1.287111504419954.938522212216412,0,1.463899963018775.94191151314044,1.486399962450378,1.246111505455701,0,0-.688499982607027-.718199981856742-1.391599964845227-.694299982460507-.703199982235674.023399999408866-1.396499964721443.536099986456975-1.629899958825263,1.004399974626722-.235377826564218.468699988159642-.515599986974848.826599979118328-.796899979868613,1.975599950092146-.901399977228721-.120599996953388-2.609399934081011-.430699989119603-3.874999902109266.015099999618542-1.265599968028255.445299988750776-1.587899959886272.9731999754149-1.755899955642235,1.715299956667877l-.645499983693298.323788595999758Z"/>
  <path class="cls-6" d="M10.767183184570968,44.068264127780822s-1.177699970248796.376899990478705-1.365199965512147,1.642088610593419c-.186499995288614,1.26611131593927.588899985123135,1.604911307380462.588899985123135,1.604911307380462l.663999983225949-.607911307380164s-.527299986679282.038111321774522-.648399983620038-.273888670343695c-.123078004138733-.312999992092955-.241199993906775-.882299977711227.039999998989515-1.351111329656305.281299992893764-.467688624396942.743199981225189-.942788612394907.743199981225189-.942788612394907l-.022499999431602-.07129999819881Z"/>
  <path class="cls-6" d="M11.305283170977418,46.988164054017943s-1.194299969829444.593299985011981-1.404299964524398,1.577099960159103c-.211899994646956.983899975144595.184599995336612,2.257399942973279,1.637699958628218,2.515199936460704.376999990476179.026799999322975.664099983223423-.0102999997398.967799975551316-.034199999136035,0,0-.110399997211061-.100099997471261-.467799988182378-.205099994818738-.359399990920792-.104999997347477-1.431599963834742-.728999981583911-1.549799960848759-1.59469995971449-.116199997064541-.867199978092685.226599994275603-1.670899957789516.813522008047585-2.116199946540291,0,0,.162077967306686-.084999997852719.002877971328417-.142099996410252"/>
  <path class="cls-6" d="M11.754483159629672,51.654163936144869l.665999983175425.02929999925982s-.220699994424649.448699988664885-.142499996400147.748999981078668c.079099998001766.300799992401153.266599993265118.680699982804072.644499983718561.873099977943639.377922069525084.193788843947914.562499985790055.328599991698866,1.547799960899283.399899989897676,0,0,.170899995682703.148888854049801-.070299998224073.151799996165209-.240199993932038.002999999924214-1.120099971703894.08008885788513-1.945299950857589-.373999990551965-.790999980017659-.435999988985714-.790999980017659-1.467799962920253-.70019998231146-1.829099953793047"/>
  <path class="cls-6" d="M20.524082938090942,40.607264215213036s.230399994179606.726088523161707.283199992845766.927299976574432c.051699998693948.202599994881894.07999999797903.335899991514452.308599992204108.391599990107352.228522276507647.056099998582795,1.577099960159103.279299992944289,1.718699956581986.325188556479588.140599996448145.046911434120375,2.748999930554419.743111416532884,3.12499992105586,1.071311408241854,0,0-3.295899916738563-.788099980090919-4.255899892486923-.788099980090919-.525277708642534-.035211428150433-.998999974763137-.127899996768974-.998999974763137-.127899996768974,0,0-.304699992302631.092688568618541-.31049999215611-.452199988576467-.007777741724567-.544899986234668-.047899998789944-1.409199964400614-.047899998789944-1.409199964400614l.177799995508394.061999998433748Z"/>
  <path class="cls-6" d="M35.187082567672405,46.446164067710015l1.734399956185371.165999995806487s.330099991660973.124999996842234.285199992795242.359399990920792c-.046899998815206.234899994065927-.342799991340144.313999992067693-.636699983915605.185099995323981-.295899992524937-.131399996680557-1.35839996568393-.600099984840199-1.35839996568393-.600099984840199l-.024499999381078-.110399997211061Z"/>
  <path class="cls-6" d="M25.59728280993113,27.740564540253217s-.0556999985929-.401299989862309.154299996102054-.787999980093446c.211899994646956-.386299990241241.759822393614741-.812099979484628,1.708999956827029-.916999976834632.950199975995929-.104999997347477,2.49609993694321.081999997928506,4.112299896114564.75089998103067,1.617199959146092.667999983124901,3.868099902283575,2.112799946626183,5.344699864981521,3.764699904895679,1.477599962672684,1.652299958259391,1.388699964918487,1.996099949574273,1.388699964918487,1.996099949574273,0,0-.087877289226526.396999989970936-.685599982680287-.165999995806487-.789999980042921-1.077699972775008-1.729499956309155-2.294999942023424-3.752899905193772-3.435099913222075-2.024377401352467-1.138699971234018-4.156199895005557-2.208999944195966-6.266599841692368-2.243599943321897-.28119999289629.007788171898937-1.581999960035319.01899999952002-2.003899949377228,1.037999973777914"/>
  <path class="cls-6" d="M42.221282389973567,41.522352738374138s-.524399986752542.26121144712306-.829099979055172.588811438847188c-.303699992327893.328188561153183-.583999985246919.948299976043927-.583999985246919.948299976043927,0,0-.034099999138562.217799994497909.032299999184033.293888585109016.066399998322595.076211405541471.356399990996579.232911401582896.508799987146631-.000888592510819.151299996177841-.235899994040665.432599989071605-1.025899974083586.960899975725624-1.426299963968631,0,0,.266599993265118-.212899994621694.219699994449911-.352599991092575-.04779999879247-.141099996435514-.308599992204108-.051211452428106-.308599992204108-.051211452428106"/>
  <path class="cls-3" d="M43.375582360813496,43.29726414725792c-.281177161165033.585899985198921-.545899986209406.793899979944399-.940399976243498,1.177199970261427-.135777184921608.144999996336992-.730499981546018.490799987601349-1.105499972072721.303699992327893-.374999990526703-.187899995253247-.299799992426415-.711899982015893-.251899993636471-.964811371472933.048799998767208-.252888597765377.178699995485658-.215788598702602.278299992969551-.053188602810224,0,0,.183599995361874.315399992032326.442399988824036.386188602810762.256799993512686.068911385692445.680599982806598-.248000000000502,1.055599973333301-.765088593238943.375999990501441-.514699986997584.49319998754072-1.191911406761392.487322825661977-1.374099965287314-.006822837800428-.18059999543766-.494122825490194-.463811441473808-.494122825490194-.463811441473808.03712282548986-.092788544465293.123999996867497-.188000000000102.275399993042811-.138188543318392.149399996225839.051299998704053.323199991835281.118188543317956.446299988725514.293399992588093.123999996867497.176788550729725.205999994796002.579599985358072.082999997903244.93069997648854-.123099996890232.351088574241658-.276399993017549.667999983124901-.276399993017549.667999983124901"/>
  <path class="cls-6" d="M39.92440519964839,42.102464177441107c-.110322748863837.316888560933876-.421822740994685,1.440888560933672-.421822740994685,1.440888560933672,0,0-.224599994326127,1.069811375640711-.174799995584181,1.371111368029233.04779999879247.299799992426415.228499994227604.735799981412129.736299981399497.928699976539065,0,0,.192399995139567.176299995546287-.174799995584181.194299995091569-.370099990650488.017099999568018-.7587999808311-.101999997423263-1.135799971307279-.788111339659736,0,0-.130799996695714-.950188616427113-.006799999828218-1.441888604005726.122099996915495-.493111395994674.472722721899117-1.775799955139519.649399983594776-2.108899946724705.174799995584181-.335399991527083.297899992474413-.61621144926994.228499994227604-1.019999974232633-.070299998224073-.405211475037504-.112299997163063-.541999986307928-.112299997163063-.541999986307928.284199992820504.249999993684469.630899984062125.41899998941517.665122741240339.858899978302361.036077241045859.437999988935189-.253000000000611,1.106999972034828-.253000000000611,1.106999972034828"/>
  <path class="cls-3" d="M38.753482477577563,45.24935273837491c-.143499996374885-.174788636015364-.197199995018309-.423788629725095-.268499993217119-.792000000000371-.073199998150812-.370088611073697.116199997064541-1.243088589019862.186499995288614-1.631788579200474.07129999819881-.389211420799256.548799986136146-1.559099960613821.649399983594776-1.844211420799184.099599997483892-.286188525382386.190522736404091-.844788511270963.190522736404091-.844788511270963.166000000001077.646999983655405.306577251038107.770099980545638.025377258141816,1.490788511270694-.334999991537188.843211429767507-.633799983988865,1.8100000000004-.721699981768325,2.45991138892623-.087899997779459.650899983556883-.061599998443853,1.162088611074068-.061599998443853,1.162088611074068"/>
  <path class="cls-6" d="M17.387283017333175,10.093164986064039s-.101499997435894-.553699986012361.431699989094341-1.793999954679748c.535099986482237-1.239699968682544,1.48829996240238-3.301699916592042,2.858422193221486-4.743599880166585,1.371999999999389-1.440899963599804,2.960877659770631-2.025399948834092,3.488277646447386-1.638212412843131.526299986704544.38721244444605.368099990701012.933112430655456-.158199996003532,1.32081242086133-.52539998672728.389187579138706-2.958999925249373,2.506299936685537-3.364299915010633,3.077099922265916-.404299989786523.571299985567748-2.442399938299786,3.808199903796776-2.689499932057515,4.088899896705698-.140599996448145.082999997903244-.558499985891103.250999993659207-.566399985691532-.310999992143479"/>
  <path class="cls-6" d="M46.576782279944382,32.170264428349583s-.081099997951242,1.470199962859624-.434599989021081,2.665088310024657c-.349599991168361,1.194811592466067-.887699977574812,2.269000000000233-.887699977574812,2.269000000000233,0,0-.13569999657193.199211560297044-.125999996816972.410211554966736.008799999777693.20989999469748.257922883116407,1.510699961836508.257922883116407,1.510699961836508,0,0,.166000000001077.296899992499675.361277101241285.025899999345711.193299995116831-.271999993128702,1.293899967313337-1.78269995496521,1.43549996373622-3.857899902541249.139699996470881-2.072799947636668-.07999999797903-2.636699933391355-.360299990898056-3.375999914715067,0,0-.239299993954774-.314911698892502-.246099993782991.35299999108247"/>
  <path class="cls-1" d="M13.416583117641494,54.352463867980077s1.854499953151389.09609999757231,3.285199917008867-.326199991759495c0,0,.209999994694954.80708886215416.546899986184144,1.059999973222148.33689999148919.250999993659207.844722178813754.767088888931539.867199978092685,1.165088888931678.024399999383604.399911071533097-.02447779927752.969211057151369-.889699977524288,1.327111048110055-.866199978117947.357888951890345-2.00677782175444.814999979411368-4.021499898408365.674799982953118-2.017599949031137-.141099996435514-1.885699952363211-1.67179995776678-1.768499955323932-2.023911031063108.118099997016543-.350088908964608.671799983028905-.909188894840554.907222031977653-1.096188890116537.234377939183105-.187999995250721.857377923444801-.459899988381949,1.073177917993235-.780699980277859"/>
  <path class="cls-3" d="M12.771083133948196,57.164463796942982c-.026299999335606-.114299997112539-.058599998519639-.313999992067693-.038099999037513-.472199988071225.061599998443853-.289999992673984.471699988083856-.492699987553351,1.209999969432829-.643099983753928.738299981348973-.14889999623847,1.862299952954345-.06389999838575,1.862299952954345-.06389999838575l.112299997163063-.086911088357738c-.820299979277479-.328188901155954-1.964799950364977-.365788900206098-2.762699930208328-.155788905511145-.795899979893875.210899994672218-1.012699974417046.635699983940867-.999999974737875.846699978610559.012699999679171.189899995202722.099599997483892.342299991352775.239299993954774.456999988455209.139599996473407.115199997089803.224599994326127.125999996816972.376899990478705.118199997014017"/>
  <polygon class="cls-2" points="40.66178242936985 25.769464590047392 40.526982432775185 25.61656459390997 40.482082433909454 25.609264594094384 40.929282422612232 25.218164603974401 39.998682446121165 25.043352738374779 39.041582470299545 24.86856461280604 38.801405199648798 24.83926461354622 38.576782482041381 25.035564608587265 38.644182480338714 24.961264610464241 38.359982487518209 23.975464635367643 37.340482513272946 23.975464635367643 35.766182553043109 25.463264597782654 35.649082556001304 25.588264594624889 35.0142825720377 25.35146460060696 34.234982591724474 25.066264607811718 34.324782589455936 25.810464589011644 34.541582583979107 27.556564544901448 35.656882555804259 28.343164525030261 35.817982551734531 28.488164521367253 36.263282540485307 28.607264518358534 36.454682535650136 29.055564507033523 37.395182511891107 29.893464485866389 38.940982472840915 30.111164480366824 39.39418246139212 30.133164479811057 39.822882450562247 27.413464548516458 39.913682448268446 27.634164542941107 40.046482444913636 27.885164536600314 42.426405199648798 28.173264529322296 40.66178242936985 25.769464590047392"/>
  <path class="cls-6" d="M41.373682411385744,27.517464545889197l-1.068399973009946-1.45611180751439-.011699999704433-.015088155319972-.021499999456864-.004911844680464-.834999978906126-.130788151891466.419999989389908-.365299990771746.057599998544902-.049799998741946-.083999997877982-.015111858594537-.854499978413514-.155788137088166-.025399999358342-.006299999840849-.019499999507389.017088136928578-1.510799961833982,1.309111829568792-.694299982460507-.527899986664124,1.387699964943749-1.259299968187406.017599999555387-.01609999959328-.005899999850953-.019999999494758-.195299995066307-.67481187562862-.021499999456864-.077088105376788-.063499998395855.059999998484273-1.749999955791282,1.656299958158343-.010699999729695.010699999729695.000999999974738.015088149004441.023399999408866.478111838536279.001999999949476.01899999952002.019499999507389.011699999704433.962922655808143.605999984691152-.902422657336501.781188177547847-.567299985668797-.107888194556836.170899995682703-1.435999963723589.003899999901478-.028299999285082-.033199999161297-.012699999679171-.908199977056938-.338899991438666-.078199998024502-.028299999285082.008799999777693.067399998297333.242199993881513,1.952599950673175.004899999876216.027399999307818.030299999234558.007799999802955,1.53319996126811.412099989589478.487299987689767,1.142099971148127.008822679936202.022899999421497.031177319053313.003899999901478,1.829099953793047.257799993487424.049799998741946.006399999838322.004922728412566-.040099998986989.516577258413236-3.27099991736759.358422741586764.003999999898952.443377238158064,1.084899972593121.009699999754957.023888190363323.031299999209295.002999999999702.958999975773622.116211806021965.097622787103319.011699999704433-.05172278826285-.070799998211442ZM37.475182509870137,29.121464505368749l-.490199987616506-1.076199972812901,1.653299958234129-1.439911794181171-.346699991241621,2.551311766104845-.816399979376001-.035199999110773Z"/>
  <path class="cls-6" d="M23.706682857691703,58.674163758804752h10.333999738941202c-.148499996248574-.633811020430585-.337899991463928-1.300699967141554-.561599985812791-1.953599950647913-.562499985790055-1.641099958542327-1.793899954682274-3.395999914209824-1.793899954682274-3.395999914209824l-.692399982508505-.976999975318904c.209999994694954-.093299997643044.330099991660973-.039099999012251.547899986158882.086899997804721,1.476499962700473.444799988763407,2.536099935932725,1.337888821941306,2.536099935932725,1.337888821941306,0,0,.813499979449261.704111126473435,1.052699973406561.600111129100696.443399988798774-.42189998934191-.505799987222417-.99219997493492-.868077369479579-1.211899969384831-1.055722581921145-.599211159715196-3.227622527054336-1.38921115971516-6.707999999998719-1.810099954273028-3.480522351208492-.423299989306543-5.90632228992763.289999992673984-5.90632228992763.289999992673984.023399999408866,3.046888801884052.796899979868613,4.499999886320438,1.297899967212288,5.681699856468185.141599996422883.332999991587712.428699989170127.825188945414993.76169998075784,1.351999965845607"/>
  <polygon class="cls-3" points="23.216405199649671 58.776263756225489 44.786782325163585 58.776263756225489 44.85608232341292 58.674163758804752 34.095282595253593 58.589263760949507 23.131482872222477 58.589263760949507 23.216405199649671 58.776263756225489"/>
  <path class="cls-8" d="M22.816982880167416,53.182463897536763c.266599993265118-.147899996263732.937499976316758-.287999992724508.937499976316758-.287999992724508,0,0,.679699982829334-.153899996112159.975599975354271-.061111166437513.296899992499675.089911165709964.442399988824036.313999999999396.368199990698486.5649999999996-.07419999812555.251911147344799-.33399999156245.405211143472116-.52249998680054.438911142620782-.082999997903244.019999999494758-.195299995066307.021999999444233-.231377636087927-.017099999568018.018477641466234-.009699999754957.025377641291925-.004899999876216.041000000001077-.045899998840468,0,0-.21100000000115.011299999714538-.260822352514879-.051699998693948l.042999998913729-.03321114551818s.023399999408866-.016088853236397.008822353600408-.03518885275389c-.053722352466139-.007811147245775-.271522346964048-.023899999396235-.328122345534211-.21481114724611.03612234553475.012211152364216.162122345534954.067811150959642.299799992426415.051211151378993.137699996521405-.016999999570544.406199989738525-.072211151378724.414999989516218-.20699999477074.007799999802955-.13521115660842-.202099994894525-.105899997324741-.274399993068073-.102999997398001-.141599996422883.012699999679171-.318399991956539.025899999345711-.486277643340145.082999997903244-.166999999999462.057599998544902-.281322337268648.126899996794236-.295922336899821.201699994904629-.000999999974738.037088847981977.03219999918656.07708884798194.050799998716684.098088847981671.019499999507389.021999999999935.916999976834632.859911127817213.916999976834632.859911127817213,0,0,.131799996670452.136199996559299.088799997756723.318299991959066-.042899998916255.183599995361874-.190399995190091.329599991673604-.332999991587712.431699989094341-.142599996397621.102999997398001-.715799981917371.474088891129213-.921899976710847.556088891129548-.194299995091569.077211092871948-.278299992969551.035211093932958-.379777668109455-.048788903945024-.100622319754621-.078099998027028-.4219223116379-.37939999041555-.4219223116379-.37939999041555,0,0-.095699997582415-.125999996816972.023399999408866-.256811105638917.120099996966019-.131888884541695.393599990056828-.276888880878687.566399985691532-.330088879534742l.279299992944289.252899993611209c-.054699998618162-.001899999952002-.120099996966019-.007811114076503-.166999995781225.003399999914109-.049799998741946.011699999704433-.20699999477074.076699998062395-.244099993833515.136699996546668-.036077676792047.060088889462349.065399998347857.224199994336232.213922323207953.224199994336232.149377667614317,0,.225477665691869-.080111104874049.271377664532338-.11089999719843.043999998888467-.032211107675721.199299994965259-.184999995326507.199299994965259-.184999995326507,0,0,.076099998077552-.080099997976504.00579999985348-.181211112349047-.070299998224073-.100088880544718-.954099975897407-.84418886174717-.954099975897407-.84418886174717-.07419999812555-.067899998284702-.238299993980036-.196811138252997-.211899994646956-.404811138252626.024399999383604-.208999999999833.270522311193417-.391088841641249.328099991711497-.422888840837913"/>
  <path class="cls-8" d="M30.79940519964839,53.604352738374473c-.126922517927596.282211141375228-.554622507122986.917000000000371-.554622507122986.917000000000371,0,0,.056622507123393-.314888866706497.062499998421117-.342788866001683.006799999828218-.028299999285082.00579999985348-.086399997817352-.013699999653909-.095211133998419-.020499999482126-.007788863399583-.061499998446379.029811135650561-.061499998446379.029811135650561l-.335999991511926.383299990317028s.117199997039279-.274899993055442.139699996470881-.326199991759495c.023399999408866-.050799998716684.018499999532651-.066911134208567.017622501844016-.082999997903244,0,0-.133822498908557-.215799994548433-.185622497599979-.275911136304785l-.345699991266883.742211124525056.007799999802955-.130299996708345c-.00289999992674-.170911127816908-.091799997680937-.237799993992667-.147399996276363-.257911127817351-.057699998542375-.019999999999527-.144599996347097,0-.144599996347097,0-.042899998916255-.057088864225079-.131799996670452-.100088863138808-.266599993265118-.080999999999221-.304699992302631.062999999999192-.4989999873942.461911124709331-.551699986062886.558111122279115-.053699998643424.097199997544521-.197299995015783.180199995447765-.197299995015783.180199995447765l.66112245603108-1.476099962710578-.496122460199331.023899999396235s-.518499986901588,1.142099971148127-.588799985125661,1.270999967891839c-.07129999819881.128888877695317-.239299993954774.237799993992667-.239299993954774.237799993992667l.668999983099638-1.502911116297582-.479499987886811.019000000000233s-.509799987121369,1.126999999999498-.579099985370704,1.269111121723654c-.069399998246809.143999996362254-.08209999792598.138199996508774-.160177570562155.217699994500435-.079122423392619.080099997976504-.151422421566167.098188883775947-.151422421566167.098188883775947,0,0,.318422421565629-.703088868494888.353599991067313-.792999999999665.034099999138562-.089788863955619-.062499998421117-.096188863793941-.062499998421117-.096188863793941l-.353599991067313.018099999542756-.025299999360868.056088864250341c-.083099997900717-.03899999999976-.212899994621694-.053188864323602-.385777580651848.004000000000815-.213922404198456.078111132257618-.354522400646601.254811127793801-.428722398772152.317811126202287l.263722398771279-.515599986974848s.084000000000742-.194299995091569.094677592174776-.238299993980036c.012699999679171-.048799998767208-.006799999828218-.095699997582415-.017599999555387-.131799996670452-.011699999704433-.036199999085511-.03807759261872-.036199999085511-.051699998693948-.01319999966654l-.265699993287853.353999991057208-.488199987667031.622088860031909s.064399998373119-.368188866445962.035099999113299-.393088865816935c-.041999998938991-.034699999123404-.088899997754197.020999999469495-.088899997754197.020999999469495l-.327099991736759.377899990453443.157199996028794-.467699988184904-.379899990402919-.220299994434754-.176699995536183.584999985221657s-.252899993611209.861299978241732-.272499993116071.947299976069189c-.018499999532651.086888897222707.02349999940634.171799995659967.07419999812555.186999995275983.224599994326127.040999998964253.448299988674989-.373999990551965.448299988674989-.373999990551965,0,0-.057599998544902.330999991638237.088822373632865.35299999108247.144577620470955.023888901416285.389677614279208-.321299991883279.389677614279208-.321299991883279l.241199993906775-.331499991625606c-.069299998249335.224599994326127-.023399999408866.530688884925439.147499996273837.593688884925541.171799995659967.061999999999898.361299990872794-.070788898135106.493099987543246-.155788895987826.014699999628647.096699997557153.061599998443853.143599996372359.128899996743712.160699995940377.179699995460396.035088900047413.339899991413404-.137699996521405.433622411253964-.217799994497909,0,0-.027322421517965.200699994929892.168999999999869.194799995078938.203077568392473-.006799999828218.414000000000669-.219699994449911.52537756025049-.318799991946435-.084999997852719.233888891412789.038099999037513.275888891412251.101499997435894.280799992906395.264699993313116.024399999383604.589899985097873-.291099992646195.661199983296683-.353099991079944.036099999088037.173399995619548.091799997680937.269099993201962.257799993487424.320299991908541.349599991168361.070799998211442.672799983003642-.373999990551965.784199980189442-.539999986358453,0,0-.189499995212827.459999988379423-.030299999234558.517099986936955.151299996177841.054699998618162.304699992302631-.168999995730701.438499988922558-.36039999089553,0,0-.077199998049764.286188887994285.036099999088037.308099992216739.152299996152578.032299999184033.420899989367172-.318799991946435.572299985542486-.520999986838433.152322511021339-.216799994523171.355399991021841-.607911117383992.355399991021841-.607911117383992l-.043899998890993.014211132382115.067399998297333-.178211132381875h-.042999998913729s.064422519506479-.119188860105169.092799997655675-.22218885750317c.028299999285082-.102499997410632-.011799999701907-.215811142496932-.028377478149196-.237811142496867M26.609982784348176,54.502352738374611s-.138699996496143.310999999999694-.198199994993047.44191111465534c-.059599998494377.131299996683083-.206099994793476.23629999403056-.295899992524937.193299995116831-.087899997779459-.044399998878362-.043999998888467-.201211109771975.065399998347857-.35589999100921.116199997064541-.164099995854485.36329999082227-.285199992795242.36329999082227-.285199992795242.078099998027028-.042999998913729.065399998347857.00588887403228.065399998347857.00588887403228M29.208582718702019,54.58726386204853c-.045899998840468.137199996534036-.189399995215354.343299991327513-.264599993315642.393088876326146-.073299998148286.050311112472627-.098699997506628.075211111843601-.150399996200576.050311112472627-.052699998668686-.02639999933308-.079099998001766-.098199997519259-.047899998789944-.192399995139567.030299999234558-.093799997630413.12409999686497-.236799994017929.194399995089043-.310999992143479.072199998176075-.073799998135655.145499996324361-.139699996470881.225599994300865-.103999997372739,0,0,.087799997781985.027299999310344.042899998916255.163999995857012"/>
  <path class="cls-8" d="M30.772082679204686,54.33535273837424s.047899998789944-.201188864879441.327199991734233-.353088861042124c.28119999289629-.150799996190472.535122528710417-.114699997102434.596599984928616-.003911138957847.074299998123024.136311135613141.022522543780724.337911130520297-.130799996695714.401911128903521-.096677459523562.016088871097054-.130899996693188-.002911128903179-.198299994990521-.065911128903281-.069299998249335-.061999999999898-.056599998570164-.068888867691385-.034099999138562-.080088867408449.022399999434128-.010699999729695.113199997140327-.004911132591587.142499996400147-.059099998507008.028299999285082-.054699998618162-.00289999992674-.087899997779459-.053699998643424-.087899997779459-.051699998693948,0-.178699995485658.045899998840468-.245077463150665.114299997112539-.034222529793624.039999998989515-.068422528929659.094699997607677.007777469145367.160599995942903.07722253085376.066399998322595.311499992130848.248099993732467.311499992130848.248099993732467,0,0,.121099996940757.157199996028794.000999999974738.311999992118217-.120099996966019.154299996102054-.408199989688001.250999993659207-.408199989688001.250999993659207,0,0-.478499987912073.141088891129584-.955077471562618.104899997350003,0,0-.013622503965962-.016599999580649.020477495172599-.025811106220317.034199999136035-.009788892880351.514699986997584-.16208888903293.857522504826193-.378888883556101.047777472304006-.025899999345711.118077470528078-.093299997643044.005777473365015-.168999995730701-.113299997137801-.077111120713198-.274399993068073-.164999995831749-.245099993808253-.369111120713569"/>
</svg>