<?xml version="1.0" encoding="UTF-8" standalone="no"?>
<svg
   xmlns:dc="http://purl.org/dc/elements/1.1/"
   xmlns:cc="http://creativecommons.org/ns#"
   xmlns:rdf="http://www.w3.org/1999/02/22-rdf-syntax-ns#"
   xmlns:svg="http://www.w3.org/2000/svg"
   xmlns="http://www.w3.org/2000/svg"
   id="svg51869"
   version="1.1"
   viewBox="0 0 300 300"
   height="300"
   width="300">
  <defs
     id="defs51863" />
  <metadata
     id="metadata51866">
    <rdf:RDF>
      <cc:Work
         rdf:about="">
        <dc:format>image/svg+xml</dc:format>
        <dc:type
           rdf:resource="http://purl.org/dc/dcmitype/StillImage" />
        <dc:title></dc:title>
      </cc:Work>
    </rdf:RDF>
  </metadata>
  <g
     transform="translate(103.1496,-761.25983)"
     id="layer1">
    <path
       id="path50349"
       d="m 181.85041,911.28359 c 0,74.54696 -60.4293,134.97621 -134.976062,134.97621 -74.59467,0 -135.02395,-60.42925 -135.02395,-134.97621 0,-74.59448 60.42928,-135.02376 135.02395,-135.02376 74.546762,0 134.976062,60.42928 134.976062,135.02376"
       style="fill:#221815;fill-opacity:1;fill-rule:nonzero;stroke:none;stroke-width:12.20985985" />
    <path
       id="path50351"
       d="m 61.421138,946.53013 c 1.71711,-1.57389 3.10023,-1.62159 4.81716,0 3.3387,3.19556 8.06052,4.86486 11.92383,4.86486 4.43559,0 8.82345,-2.14622 11.06517,-7.58342 -15.54852,-0.4771 -17.21784,-35.5327 1.47846,-38.53743 -1.62159,-4.5787 -5.77107,-7.72664 -10.779,-7.72664 -2.9571,0 -6.10485,1.14412 -7.67883,2.67094 -1.76472,1.6693 -3.10023,1.62168 -4.86495,0 -1.81227,-1.62159 -5.05563,-2.67094 -7.72647,-2.67094 -4.96029,0 -9.15738,3.14794 -10.73136,7.72664 20.36568,3.24318 11.20827,30.28616 -3.24318,30.28616 -18.07635,0 -20.89041,-31.76471 -6.43875,-43.30687 -14.83314,-11.82824 -11.87604,-44.54688 6.43875,-44.54688 14.21301,0 20.17482,19.6503 3.24318,28.85531 1.57398,4.62641 5.77107,7.72665 10.73136,7.72665 3.00474,0 6.15267,-1.14413 7.72647,-2.67094 1.71711,-1.6693 3.10023,-1.57397 4.86495,0 1.81242,1.66921 5.00799,2.67094 7.67883,2.67094 5.00793,0 9.15741,-3.10024 10.779,-7.72665 -4.72173,-1.33542 -8.68047,-5.72337 -10.3974,-14.88076 -3.3387,-18.02862 -17.1225,-30.04761 -34.14948,-30.04761 -22.36887,0 -34.101768,17.36077 -35.723361,34.29243 -0.810429,8.91893 -4.10178,22.17811 -9.062067,26.32751 5.294166,4.43566 8.346693,15.31006 9.062067,25.0875 1.621593,20.07951 16.025451,34.05406 35.723361,34.05406 5.77107,0 12.25755,-2.0986 15.26226,-4.86486"
       style="fill:#f49c00;fill-opacity:1;fill-rule:nonzero;stroke:none;stroke-width:12.20985985" />
    <path
       id="path50353"
       d="M 117.65332,967.84973 H -21.043027 v -1.62168 H 117.65332 Z m 0,0"
       style="fill:#f49c00;fill-opacity:1;fill-rule:nonzero;stroke:none;stroke-width:12.20985985" />
    <path
       id="path50355"
       d="m 81.929948,993.27102 c 2.86161,0 4.34025,-2.24173 4.57869,-4.38794 0.09798,-1.14413 0.52473,-2.86169 1.14405,-3.38632 -0.61995,-0.52472 -1.0488,-2.24173 -1.14405,-3.3864 -0.23808,-2.19384 -1.71708,-4.38786 -4.57869,-4.38786 -2.86179,0 -4.34025,2.19402 -4.53099,4.38786 -0.14286,1.14403 -0.57234,2.86177 -1.19283,3.3864 0.61995,0.52472 1.0488,2.24164 1.19283,3.38632 0.19047,2.14621 1.6692,4.38794 4.53099,4.38794 m -0.85806,-7.77426 c -2.19402,-1.76472 -1.33551,-5.48491 0.85806,-5.48491 2.19402,0 3.10023,3.72019 0.85806,5.48491 2.24172,1.76472 1.33551,5.43721 -0.85806,5.43721 -2.19402,0 -3.05244,-3.67249 -0.85806,-5.43721"
       style="fill:#f49c00;fill-opacity:1;fill-rule:nonzero;stroke:none;stroke-width:12.20985985" />
    <path
       id="path50357"
       d="m 13.487948,985.49676 c -2.146215,2.00318 -1.621587,6.39113 0.23811,6.62959 -0.1905,0.57234 -0.762825,1.00118 -1.383147,1.00118 -0.380949,0 -0.810429,-0.14286 -1.001178,-0.38095 -0.238092,-0.19048 -0.380949,-0.19048 -0.619956,0 -0.238092,0.23809 -0.667575,0.38095 -1.001268,0.38095 -0.619956,0 -1.192842,-0.42948 -1.383135,-1.00118 1.860051,-0.23809 2.384769,-4.62641 0.238092,-6.62959 1.430754,-1.33551 1.860051,-4.34024 0.524721,-4.34024 -0.285711,0 -0.524721,0.14286 -0.810429,0.38095 -0.190476,0.14286 -1.192845,1.14404 -1.383135,1.33542 -0.380946,0.38095 -0.905667,0.14286 -0.715191,-0.38094 0.190473,-0.52472 1.144125,-3.14786 1.192932,-3.81562 0.097986,-0.90566 0.238092,-0.95355 1.192935,-0.52471 0.619956,0.23809 1.716921,0.57233 2.480004,0.57233 0.715194,0 1.860234,-0.33333 2.432475,-0.57233 1.00119,-0.42949 1.09641,-0.38095 1.19295,0.52471 0.09798,0.66758 1.00116,3.29108 1.19283,3.81562 0.19047,0.52472 -0.28572,0.76281 -0.66756,0.38094 -0.1905,-0.19047 -1.19286,-1.19174 -1.43085,-1.33542 -0.23811,-0.23809 -0.47712,-0.38095 -0.810435,-0.38095 -1.335423,0 -0.905667,3.00473 0.524715,4.34024"
       style="fill:#f49c00;fill-opacity:1;fill-rule:nonzero;stroke:none;stroke-width:12.20985985" />
    <path
       id="path50359"
       d="m 27.796478,993.27102 c 2.86158,0 4.34004,-2.24173 4.5309,-4.38794 0.14283,-1.14413 0.57234,-2.86169 1.19292,-3.38632 -0.61995,-0.52472 -1.0488,-2.24173 -1.19292,-3.3864 -0.19047,-2.19384 -1.66932,-4.38786 -4.5309,-4.38786 -2.86179,0 -4.38804,2.19402 -4.57869,4.38786 -0.09801,1.14403 -0.52473,2.86177 -1.14414,3.3864 0.61995,0.52472 1.04889,2.24164 1.14414,3.38632 0.19047,2.14621 1.7169,4.38794 4.57869,4.38794 m -0.85806,-7.77426 c -2.24163,-1.76472 -1.33542,-5.48491 0.85806,-5.48491 2.19384,0 3.05244,3.72019 0.85803,5.48491 2.19393,1.76472 1.33533,5.43721 -0.85803,5.43721 -2.19402,0 -3.10023,-3.67249 -0.85806,-5.43721"
       style="fill:#f49c00;fill-opacity:1;fill-rule:nonzero;stroke:none;stroke-width:12.20985985" />
    <path
       id="path50361"
       d="m 49.592888,988.40616 c -1.52625,-0.76281 -2.38476,-3.05253 -2.76624,-4.53099 1.43082,-2.1464 2.5278,-3.76799 4.96017,-4.96028 -0.19047,-0.61996 -0.90564,-1.0488 -1.52616,-1.0488 -0.28572,0 -0.66756,0.14286 -0.90567,0.38095 -0.19047,0.19047 -0.33333,0.19047 -0.57234,0 -0.19047,-0.19048 -0.57234,-0.38095 -0.90567,-0.38095 -0.61995,0 -1.43091,0.42856 -1.62177,1.0488 1.14414,0.14285 0.61995,2.48009 -1.81224,4.38785 -0.47709,-2.00309 0.14286,-4.24482 1.47846,-4.38785 -0.23808,-0.61996 -0.76281,-1.0488 -1.38312,-1.0488 -0.38097,0 -0.81045,0.19047 -1.00119,0.38095 -0.23808,0.19047 -0.38094,0.19047 -0.61995,0 -0.23811,-0.23809 -0.66759,-0.38095 -1.00128,-0.38095 -0.61995,0 -1.19283,0.42856 -1.38321,1.0488 1.86012,0.19047 2.38485,4.57869 0.23808,6.58187 2.14623,2.00318 1.62159,6.39113 -0.23808,6.62959 0.19047,0.57234 0.76281,1.00118 1.38321,1.00118 0.33333,0 0.76281,-0.19048 1.00128,-0.38095 0.23808,-0.19048 0.38094,-0.23809 0.61995,0 0.19047,0.19047 0.61995,0.38095 1.00119,0.38095 0.61995,0 1.14402,-0.42948 1.38312,-1.00118 -1.66929,-0.23809 -2.00319,-3.52953 -0.81042,-5.81888 1.0488,1.14412 1.0488,2.71864 1.0488,2.71864 1.14411,0.42949 1.62159,2.28935 0.57231,3.10024 0.28572,0.57234 1.19295,1.00118 1.71702,1.00118 0.38094,0 0.66759,-0.19048 0.81042,-0.38095 0.14286,-0.19048 0.33333,-0.19048 0.57234,0 0.23811,0.23809 0.61998,0.38095 0.95358,0.38095 0.57234,0 1.14402,-0.42948 1.23999,-1.00118 -1.43085,-0.61996 -2.33706,-1.95556 -2.43237,-3.72019"
       style="fill:#f49c00;fill-opacity:1;fill-rule:nonzero;stroke:none;stroke-width:12.20985985" />
    <path
       id="path50363"
       d="m 63.281378,978.86718 c -0.81042,0.66757 -0.85806,3.19556 1.23999,4.57869 1.81245,-1.62159 2.57553,-4.43556 1.24002,-4.57869 0.19047,-0.57234 0.76281,-1.00118 1.38312,-1.00118 0.38094,0 0.81042,0.14285 1.00128,0.33333 0.19047,0.23809 0.38094,0.23809 0.61995,0 0.23808,-0.19048 0.61995,-0.33333 1.00119,-0.33333 0.61995,0 1.14402,0.42856 1.38312,1.00118 -1.81242,1.00117 -3.95865,3.86332 -3.95865,6.62958 -2.09868,2.00318 -1.86024,6.39113 0.04578,6.62959 -0.23808,0.57234 -0.76281,1.00118 -1.43073,1.00118 -0.33333,0 -0.76281,-0.19048 -0.95367,-0.38095 -0.23808,-0.19048 -0.42948,-0.19048 -0.61995,0 -0.23808,0.23809 -0.66756,0.38095 -1.00119,0.38095 -0.66756,0 -1.19292,-0.42948 -1.38312,-1.00118 1.86006,-0.23809 2.14623,-4.62641 0,-6.62959 0,-2.76626 -2.14623,-5.62804 -3.91095,-6.62958 0.19047,-0.57234 0.7152,-1.00118 1.38315,-1.00118 0.33333,0 0.71517,0.14285 1.00116,0.33333 0.19047,0.23809 0.38097,0.23809 0.61998,0 0.19047,-0.19048 0.57231,-0.33333 0.95364,-0.33333 0.66756,0 1.19283,0.42856 1.38321,1.00118"
       style="fill:#f49c00;fill-opacity:1;fill-rule:nonzero;stroke:none;stroke-width:12.20985985" />
    <path
       id="path50365"
       d="m -42.6488,884.95608 v 27.75844 h -3.863229 v -24.18129 h -4.149489 v -3.57715 z m 0,0"
       style="fill:#f49c00;fill-opacity:1;fill-rule:nonzero;stroke:none;stroke-width:12.20985985" />
    <path
       id="path50367"
       d="m -14.842738,894.2566 v -0.23809 c 0,-3.29089 -2.575515,-6.05715 -5.72337,-6.05715 -3.147762,0 -5.675754,2.71846 -5.675754,6.05715 0,3.43403 2.527992,6.15267 5.628045,6.15267 3.100233,0 5.771079,-2.57551 5.771079,-5.91421 m -5.961828,18.45792 h -4.626408 l 5.914212,-9.10968 c -0.810429,0.14285 -1.144035,0.14285 -1.621683,0.14285 -5.055615,0 -8.966556,-4.10178 -8.966556,-9.34823 0,-5.62804 4.10178,-9.96829 9.538893,-9.96829 5.294073,0 9.586602,4.38805 9.586602,9.68212 0,2.00327 -0.715194,4.29262 -2.098509,6.43884 z m 0,0"
       style="fill:#f49c00;fill-opacity:1;fill-rule:nonzero;stroke:none;stroke-width:12.20985985" />
    <path
       id="path50369"
       d="m 103.10632,904.55867 h 3.91113 c 0.098,3.14786 2.14623,5.15113 5.19867,5.15113 2.71854,0 4.96029,-2.28935 4.96029,-5.15113 0,-2.81397 -2.24175,-4.96028 -5.19876,-4.96028 h -1.38312 v -3.91094 h 1.28769 c 2.52792,0 4.10178,-1.47846 4.10178,-3.91094 0,-2.0986 -1.66938,-3.81552 -3.76788,-3.81552 -2.09862,0 -3.43404,1.43075 -3.72021,3.95865 h -3.86331 c 0.23808,-4.43575 3.3864,-7.48819 7.72665,-7.48819 4.29252,0 7.48809,3.38641 7.48809,7.86978 0,2.19384 -0.52473,3.33851 -2.5278,5.24627 2.38467,1.52626 3.72009,4.00645 3.72009,6.91585 0,4.86486 -4.00635,8.7758 -9.06198,8.7758 -4.91256,0 -8.87133,-3.81561 -8.87133,-8.68048"
       style="fill:#f49c00;fill-opacity:1;fill-rule:nonzero;stroke:none;stroke-width:12.20985985" />
    <path
       id="path50371"
       d="m 142.74082,904.79713 v -13.30679 l -8.20356,13.30679 z m 3.91095,-19.84105 v 19.84105 h 2.90928 v 3.57716 h -2.90928 v 4.34023 h -3.91095 v -4.34023 h -12.63921 v -3.7679 l 12.63921,-19.65031 z m 0,0"
       style="fill:#f49c00;fill-opacity:1;fill-rule:nonzero;stroke:none;stroke-width:12.20985985" />
    <path
       id="path50373"
       d="m 46.874348,784.17713 c -70.063683,0 -127.10656,57.04287 -127.10656,127.10646 0,70.06368 57.042877,127.05891 127.10656,127.05891 70.063592,0 127.058852,-56.99523 127.058852,-127.05891 0,-70.06359 -56.99526,-127.10646 -127.058852,-127.10646 m 0,256.78867 c -71.542236,0 -129.729787,-58.18769 -129.729787,-129.68221 0,-71.54205 58.187551,-129.72969 129.729787,-129.72969 71.494352,0 129.681992,58.18764 129.681992,129.72969 0,71.49452 -58.18764,129.68221 -129.681992,129.68221"
       style="fill:#f49c00;fill-opacity:1;fill-rule:nonzero;stroke:none;stroke-width:12.20985985" />
    <path
       id="path50375"
       d="m 46.874348,790.13896 c -66.82041,0 -121.144729,54.32441 -121.144729,121.14463 0,66.7727 54.324319,121.14481 121.144729,121.14481 66.772682,0 121.144622,-54.37211 121.144622,-121.14481 0,-66.82022 -54.37194,-121.14463 -121.144622,-121.14463 m 0,244.91254 c -68.251251,0 -123.815665,-55.51657 -123.815665,-123.76791 0,-68.25116 55.564414,-123.81548 123.815665,-123.81548 68.251172,0 123.767762,55.56432 123.767762,123.81548 0,68.25134 -55.51659,123.76791 -123.767762,123.76791"
       style="fill:#f49c00;fill-opacity:1;fill-rule:nonzero;stroke:none;stroke-width:12.20985985" />
  </g>
</svg>
